<svg width="21" height="21" viewBox="0 0 21 21" fill="none" xmlns="http://www.w3.org/2000/svg">
<g clip-path="url(#clip0_440_23579)">
<path d="M10.5002 17.4282C9.10039 17.4282 7.70641 17.226 6.57512 16.8588C5.27723 16.4376 4.61914 15.9041 4.61914 15.2733L4.61919 9.00781C4.61919 8.68422 4.88154 8.42188 5.20513 8.42188H15.7954C16.119 8.42188 16.3813 8.68422 16.3813 9.00781L16.3813 15.2733C16.3813 15.9041 15.7232 16.4376 14.4253 16.8588C13.294 17.226 11.9001 17.4282 10.5002 17.4282Z" fill="url(#paint0_linear_440_23579)"/>
<path d="M18.5059 17.6173C18.1823 17.6173 17.9199 17.355 17.9199 17.0314V8.82812C17.9199 8.50453 18.1823 8.24219 18.5059 8.24219C18.8295 8.24219 19.0918 8.50453 19.0918 8.82812V17.0314C19.0918 17.355 18.8295 17.6173 18.5059 17.6173Z" fill="url(#paint1_linear_440_23579)"/>
<path d="M18.5068 14.9707C19.1567 14.9707 19.6836 14.4439 19.6836 13.7939C19.6836 13.144 19.1567 12.6172 18.5068 12.6172C17.8569 12.6172 17.3301 13.144 17.3301 13.7939C17.3301 14.4439 17.8569 14.9707 18.5068 14.9707Z" fill="#F8666C"/>
<path d="M10.4999 12.1448C10.4335 12.1448 10.3672 12.1336 10.3037 12.111L0.889636 8.76422C0.775528 8.72365 0.676796 8.64871 0.607022 8.54973C0.537247 8.45074 0.499859 8.33256 0.5 8.21146C0.500142 8.09035 0.537806 7.97227 0.607811 7.87344C0.677816 7.77462 0.776723 7.69992 0.890925 7.65961L10.305 4.33809C10.4311 4.29355 10.5687 4.29355 10.6949 4.33809L20.1089 7.65961C20.2231 7.69992 20.322 7.77462 20.392 7.87344C20.4621 7.97227 20.4997 8.09035 20.4999 8.21146C20.5 8.33256 20.4626 8.45074 20.3928 8.54973C20.3231 8.64871 20.2243 8.72365 20.1102 8.76422L10.6962 12.111C10.6332 12.1334 10.5668 12.1448 10.4999 12.1448Z" fill="#F8666C"/>
<path d="M20.5 8.21465C20.4999 8.09354 20.4622 7.97545 20.3922 7.87663C20.3222 7.77781 20.2233 7.70311 20.109 7.66281L19.9133 7.59375L10.5391 10.9264L1.03882 7.61066L0.891003 7.66281C0.776783 7.7031 0.677856 7.7778 0.607836 7.87662C0.537815 7.97545 0.500142 8.09354 0.5 8.21466C0.499859 8.33578 0.537256 8.45396 0.607046 8.55295C0.676836 8.65194 0.775588 8.72687 0.889713 8.76742L10.3038 12.1142C10.397 12.148 10.4835 12.148 10.5 12.148C10.5664 12.148 10.6328 12.1368 10.6963 12.1142L20.1105 8.76734C20.2246 8.72676 20.3233 8.65183 20.3931 8.55286C20.4628 8.45389 20.5002 8.33573 20.5 8.21465Z" fill="#F8666C"/>
</g>
<defs>
<linearGradient id="paint0_linear_440_23579" x1="10.5002" y1="8.42188" x2="10.5002" y2="17.4282" gradientUnits="userSpaceOnUse">
<stop stop-color="#082072"/>
<stop offset="1" stop-color="#2B46A8"/>
</linearGradient>
<linearGradient id="paint1_linear_440_23579" x1="18.5059" y1="8.24219" x2="18.5059" y2="17.6173" gradientUnits="userSpaceOnUse">
<stop stop-color="#082072"/>
<stop offset="1" stop-color="#2B46A8"/>
</linearGradient>
<clipPath id="clip0_440_23579">
<rect width="20" height="20" fill="white" transform="translate(0.5 0.554688)"/>
</clipPath>
</defs>
</svg>
