<svg width="32" height="33" viewBox="0 0 32 33" fill="none" xmlns="http://www.w3.org/2000/svg">
<g clip-path="url(#clip0_14_29705)">
<rect x="-4" y="-1.21387" width="38" height="38" fill="#F8F8F8"/>
<ellipse cx="16" cy="8.78613" rx="11" ry="8" fill="url(#paint0_linear_14_29705)"/>
<path d="M6.848 13.2128H8.34133L11.1253 20.7861H9.61067L8.90667 18.8981H6.26133L5.568 20.7861H4.05333L6.848 13.2128ZM8.64 17.8635L7.59467 14.7381L6.50667 17.8635H8.64ZM16.4276 15.1968C16.3778 15.147 16.2854 15.0795 16.1503 14.9941C16.0223 14.9088 15.8623 14.827 15.6703 14.7488C15.4854 14.6706 15.2827 14.603 15.0623 14.5461C14.8418 14.4821 14.6178 14.4501 14.3903 14.4501C13.992 14.4501 13.6898 14.5248 13.4836 14.6741C13.2845 14.8235 13.1849 15.0332 13.1849 15.3035C13.1849 15.5097 13.2489 15.6732 13.3769 15.7941C13.5049 15.915 13.6969 16.0181 13.9529 16.1035C14.2089 16.1888 14.5289 16.2812 14.9129 16.3808C15.4107 16.5017 15.8409 16.651 16.2036 16.8288C16.5734 16.9995 16.8543 17.227 17.0463 17.5115C17.2454 17.7888 17.3449 18.1586 17.3449 18.6208C17.3449 19.0261 17.2703 19.3746 17.1209 19.6661C16.9716 19.9506 16.7654 20.1817 16.5023 20.3595C16.2391 20.5372 15.9405 20.6688 15.6063 20.7541C15.272 20.8324 14.9165 20.8715 14.5396 20.8715C14.1627 20.8715 13.7858 20.8324 13.4089 20.7541C13.032 20.6759 12.6694 20.5657 12.3209 20.4235C11.9725 20.2741 11.6525 20.0964 11.3609 19.8901L12.0116 18.6208C12.0756 18.6848 12.1894 18.7701 12.3529 18.8768C12.5165 18.9764 12.7156 19.0795 12.9503 19.1861C13.1849 19.2857 13.4409 19.371 13.7183 19.4421C13.9956 19.5132 14.2765 19.5488 14.5609 19.5488C14.9591 19.5488 15.2614 19.4812 15.4676 19.3461C15.6738 19.211 15.7769 19.019 15.7769 18.7701C15.7769 18.5426 15.6951 18.3648 15.5316 18.2368C15.368 18.1088 15.1405 17.9986 14.8489 17.9061C14.5574 17.8066 14.2125 17.6999 13.8143 17.5861C13.3378 17.451 12.9396 17.3017 12.6196 17.1381C12.2996 16.9675 12.0614 16.7541 11.9049 16.4981C11.7485 16.2421 11.6703 15.9221 11.6703 15.5381C11.6703 15.019 11.7911 14.5852 12.0329 14.2368C12.2818 13.8812 12.616 13.6146 13.0356 13.4368C13.4551 13.2519 13.9209 13.1595 14.4329 13.1595C14.7885 13.1595 15.1227 13.1986 15.4356 13.2768C15.7556 13.355 16.0543 13.4581 16.3316 13.5861C16.6089 13.7141 16.8578 13.8528 17.0783 14.0021L16.4276 15.1968ZM18.5106 20.7861V13.2128H19.9826V20.7861H18.5106ZM23.6747 13.2128H25.168L27.952 20.7861H26.4373L25.7333 18.8981H23.088L22.3947 20.7861H20.88L23.6747 13.2128ZM25.4667 17.8635L24.4213 14.7381L23.3333 17.8635H25.4667Z" fill="#132B7D"/>
</g>
<defs>
<linearGradient id="paint0_linear_14_29705" x1="16" y1="0.786133" x2="16" y2="16.7861" gradientUnits="userSpaceOnUse">
<stop stop-color="white"/>
<stop offset="1" stop-color="white" stop-opacity="0"/>
</linearGradient>
<clipPath id="clip0_14_29705">
<rect y="0.786133" width="32" height="32" rx="16" fill="white"/>
</clipPath>
</defs>
</svg>
