<svg width="15" height="21" viewBox="0 0 15 21" fill="none" xmlns="http://www.w3.org/2000/svg">
<ellipse cx="7.5" cy="18.0547" rx="6.25" ry="2.5" fill="#F8666C"/>
<circle cx="7.5" cy="8.05469" r="6.25" fill="#D9D9D9"/>
<path d="M7.81737 17.9391L7.81247 17.9335C7.72845 18.0064 7.61653 18.0472 7.5 18.0472C7.3835 18.0472 7.2716 18.0064 7.18758 17.9335C5.91336 16.7988 4.72266 15.5893 3.62315 14.3129C1.22293 11.5194 0.00747681 9.18028 0.00747681 7.36025C0.00747681 3.61244 3.36791 0.562164 7.5 0.562164C11.6321 0.562164 14.9925 3.61244 14.9925 7.36025C14.9925 9.18028 13.7771 11.5194 11.3768 14.3129C10.2773 15.5893 9.08663 16.7988 7.8124 17.9336L7.81737 17.9391ZM7.81737 17.9391C9.09184 16.8042 10.2828 15.5944 11.3825 14.3178H3.61749C4.71722 15.5944 5.90816 16.8042 7.18263 17.9391C7.26808 18.0133 7.38176 18.0547 7.5 18.0547C7.61824 18.0547 7.73192 18.0133 7.81737 17.9391Z" fill="url(#paint0_linear_440_23599)" stroke="#6A6A6A" stroke-width="0.0149536"/>
<path d="M13.0489 8.32899C13.0489 11.3931 10.565 13.8771 7.50087 13.8771C4.43675 13.8771 1.95279 11.3931 1.95279 8.32899C1.95279 5.26487 4.43675 2.78091 7.50087 2.78091C10.565 2.78091 13.0489 5.26487 13.0489 8.32899Z" fill="url(#paint1_linear_440_23599)" stroke="#6A6A6A" stroke-width="0.0149536"/>
<path d="M11.7031 6.84274L7.85315 3.1969C7.75651 3.10539 7.6306 3.05469 7.5 3.05469C7.3694 3.05469 7.24349 3.10539 7.14685 3.1969L3.29688 6.84274C3.20718 6.92771 3.14846 7.04237 3.13068 7.1673C3.1129 7.29222 3.13715 7.4197 3.19931 7.52812C3.24836 7.61066 3.3171 7.67856 3.39883 7.72521C3.48057 7.77185 3.5725 7.79564 3.66569 7.79426H4.17502V11.2578C4.17502 11.4029 4.23033 11.542 4.32879 11.6445C4.42725 11.7471 4.56078 11.8047 4.70002 11.8047H5.92501C6.06425 11.8047 6.19778 11.7471 6.29624 11.6445C6.39469 11.542 6.45001 11.4029 6.45001 11.2578V9.2526C6.45001 9.10756 6.50532 8.96846 6.60377 8.8659C6.70223 8.76334 6.83577 8.70572 6.975 8.70572H8.025C8.16423 8.70572 8.29777 8.76334 8.39623 8.8659C8.49468 8.96846 8.54999 9.10756 8.54999 9.2526V11.2578C8.54999 11.4029 8.60531 11.542 8.70376 11.6445C8.80222 11.7471 8.93575 11.8047 9.07499 11.8047H10.3C10.4392 11.8047 10.5728 11.7471 10.6712 11.6445C10.7697 11.542 10.825 11.4029 10.825 11.2578V7.79426H11.3343C11.4275 7.79564 11.5194 7.77185 11.6012 7.72521C11.6829 7.67856 11.7516 7.61066 11.8007 7.52812C11.8629 7.4197 11.8871 7.29222 11.8693 7.1673C11.8515 7.04237 11.7928 6.92771 11.7031 6.84274Z" fill="#F8666C"/>
<defs>
<linearGradient id="paint0_linear_440_23599" x1="7.5" y1="0.554687" x2="7.5" y2="18.0547" gradientUnits="userSpaceOnUse">
<stop stop-color="#082072"/>
<stop offset="1" stop-color="#2B46A8"/>
</linearGradient>
<linearGradient id="paint1_linear_440_23599" x1="7.50087" y1="2.77344" x2="7.50087" y2="13.8845" gradientUnits="userSpaceOnUse">
<stop stop-color="#082072"/>
<stop offset="1" stop-color="#2B46A8"/>
</linearGradient>
</defs>
</svg>
