<svg width="19" height="19" viewBox="0 0 19 19" fill="none" xmlns="http://www.w3.org/2000/svg">
<g id="Group">
<path id="Vector" d="M16.703 0.390625H2.29827C1.21343 0.390625 0.333984 1.27007 0.333984 2.35491V11.5216C0.333984 12.6064 1.21343 13.4859 2.29827 13.4859H16.703C17.7879 13.4859 18.6673 12.6064 18.6673 11.5216V2.35491C18.6673 1.27007 17.7879 0.390625 16.703 0.390625Z" fill="url(#paint0_linear_440_26676)"/>
<path id="Vector_2" d="M18.0126 16.1016H0.988746C0.815093 16.1016 0.648551 16.1705 0.52576 16.2933C0.402968 16.4161 0.333984 16.5827 0.333984 16.7563C0.333984 16.93 0.402968 17.0965 0.52576 17.2193C0.648551 17.3421 0.815093 17.4111 0.988746 17.4111H18.0126C18.1862 17.4111 18.3528 17.3421 18.4755 17.2193C18.5983 17.0965 18.6673 16.93 18.6673 16.7563C18.6673 16.5827 18.5983 16.4161 18.4755 16.2933C18.3528 16.1705 18.1862 16.1016 18.0126 16.1016Z" fill="#F8666C"/>
<path id="Vector_3" d="M3.60882 18.7254C4.69366 18.7254 5.5731 17.846 5.5731 16.7612C5.5731 15.6763 4.69366 14.7969 3.60882 14.7969C2.52397 14.7969 1.64453 15.6763 1.64453 16.7612C1.64453 17.846 2.52397 18.7254 3.60882 18.7254Z" fill="url(#paint1_linear_440_26676)"/>
<path id="Vector_4" d="M12.114 5.82036C12.1141 5.82041 12.114 5.82048 12.114 5.82044L8.88049 3.82039C8.68214 3.69788 8.45468 3.63054 8.2216 3.62533C7.98853 3.62012 7.75828 3.67722 7.55466 3.79075C7.35103 3.90428 7.1814 4.07011 7.06329 4.27111C6.94519 4.47211 6.88288 4.701 6.88281 4.93414V8.93473C6.88333 9.28171 7.0214 9.61432 7.26674 9.85967C7.51209 10.105 7.84471 10.2431 8.19168 10.2436C8.43132 10.2436 8.67031 10.1781 8.88049 10.0485L12.1144 8.04753C12.5026 7.80723 12.7344 7.39081 12.7344 6.93378C12.7344 6.47691 12.5028 6.06127 12.1141 5.82028C12.114 5.82024 12.114 5.82032 12.114 5.82036Z" fill="#F8666C"/>
</g>
<defs>
<linearGradient id="paint0_linear_440_26676" x1="9.50065" y1="0.390625" x2="9.50065" y2="13.4859" gradientUnits="userSpaceOnUse">
<stop stop-color="#082072"/>
<stop offset="1" stop-color="#2B46A8"/>
</linearGradient>
<linearGradient id="paint1_linear_440_26676" x1="3.60882" y1="14.7969" x2="3.60882" y2="18.7254" gradientUnits="userSpaceOnUse">
<stop stop-color="#082072"/>
<stop offset="1" stop-color="#2B46A8"/>
</linearGradient>
</defs>
</svg>
