<svg width="20" height="21" viewBox="0 0 20 21" fill="#2B46A8" xmlns="http://www.w3.org/2000/svg">
<g id="AlignBottom">
<path id="Vector" d="M16.8755 17.3755H3.12549" stroke="white" stroke-width="1.25" stroke-linecap="round" stroke-linejoin="round"/>
<path id="Vector_2" d="M11.25 6.75V14.25C11.25 14.5952 11.5298 14.875 11.875 14.875H15C15.3452 14.875 15.625 14.5952 15.625 14.25V6.75C15.625 6.40482 15.3452 6.125 15 6.125H11.875C11.5298 6.125 11.25 6.40482 11.25 6.75Z" stroke="white" stroke-width="1.25" stroke-linecap="round" stroke-linejoin="round"/>
<path id="Vector_3" d="M8.125 3H5C4.65482 3 4.375 3.27982 4.375 3.625V14.25C4.375 14.5952 4.65482 14.875 5 14.875H8.125C8.47018 14.875 8.75 14.5952 8.75 14.25V3.625C8.75 3.27982 8.47018 3 8.125 3Z" stroke="white" stroke-width="1.25" stroke-linecap="round" stroke-linejoin="round"/>
</g>
</svg>
