<svg width="108" height="30" viewBox="0 0 108 30" fill="none" xmlns="http://www.w3.org/2000/svg">
<g id="Logo">
<path id="Vector" d="M15.667 15.1779C13.3166 13.4446 11.01 11.7443 8.70271 10.0433C8.71196 10.0213 8.72121 9.9986 8.73047 9.97661C8.88002 9.97661 9.03035 9.97661 9.1799 9.97661C12.4894 9.97514 15.7989 9.97074 19.1083 9.97661C19.3651 9.97734 19.4591 9.84756 19.53 9.65767C19.9078 8.64585 20.2863 7.63404 20.664 6.62223C21.4573 4.49523 22.2498 2.36823 23.0446 0.241955C23.0669 0.181833 23.1062 0.126843 23.1764 0C23.2905 0.269083 23.3815 0.472912 23.4639 0.679673C24.517 3.33018 25.5693 5.98069 26.62 8.63192C26.8382 9.18256 26.8343 9.18182 26.3271 9.54329C23.8725 11.2905 21.4187 13.0392 18.965 14.7871C16.1758 16.7741 13.3875 18.761 10.5976 20.7465C7.53942 22.9234 4.48048 25.0981 1.42309 27.2749C0.966711 27.5997 0.513421 27.9289 0.0593595 28.2567C0.039316 28.2332 0.0192726 28.2105 0 28.187C5.20821 23.8612 10.4172 19.536 15.667 15.1779Z" fill="#132B7D"/>
<path id="Vector_2" d="M38.2583 16.072C38.2583 14.2009 38.2629 12.329 38.2529 10.4579C38.2514 10.1998 38.33 10.1082 38.6091 10.1089C41.2687 10.1155 43.9275 10.106 46.5871 10.1148C47.7543 10.1184 48.2939 10.6522 48.2931 11.7579C48.2924 14.6547 48.2939 17.5516 48.287 20.4477C48.2854 21.0658 48.1282 21.6384 47.4513 21.8892C47.1484 22.0013 46.7984 22.0409 46.4692 22.0424C43.852 22.0549 41.234 22.049 38.6168 22.0512C38.3917 22.0512 38.2421 22.0255 38.2437 21.7462C38.2537 19.8553 38.2491 17.9636 38.2491 16.0727C38.2521 16.072 38.2552 16.072 38.2583 16.072ZM45.7638 16.0822C45.7646 16.0822 45.7654 16.0822 45.7669 16.0822C45.7669 14.9971 45.7615 13.912 45.7715 12.8276C45.7738 12.6054 45.6991 12.5387 45.4647 12.5402C43.9992 12.5482 42.533 12.5453 41.0675 12.5372C40.8632 12.5358 40.7923 12.5966 40.793 12.7924C40.7977 14.9825 40.7969 17.1725 40.7938 19.3618C40.7938 19.5635 40.8694 19.6382 41.0921 19.6368C42.516 19.6287 43.9399 19.6338 45.3637 19.6353C45.7569 19.636 45.763 19.6324 45.7638 19.2482C45.7646 18.1924 45.7638 17.1373 45.7638 16.0822Z" fill="#BE3136"/>
<path id="Vector_3" d="M84.2334 16.6242C84.2334 18.3369 84.2303 20.0497 84.238 21.7624C84.2387 21.9663 84.184 22.0542 83.9597 22.0513C83.3206 22.0432 82.6815 22.0432 82.0432 22.0513C81.7981 22.0542 81.711 21.9567 81.7133 21.728C81.7233 20.8716 81.7117 20.0152 81.7287 19.1588C81.7333 18.922 81.6601 18.845 81.4111 18.8465C79.9656 18.8553 78.5202 18.8575 77.0748 18.8465C76.8034 18.8443 76.7325 18.9499 76.734 19.1801C76.7417 20.0262 76.7332 20.8731 76.7471 21.7192C76.751 21.9428 76.697 22.055 76.4388 22.0513C75.7997 22.0425 75.1606 22.0462 74.5223 22.0491C74.3126 22.0498 74.1978 22 74.1978 21.761C74.207 18.4352 74.2062 15.1087 74.2124 11.7829C74.2132 11.3312 74.2587 10.8906 74.6156 10.5328C74.9648 10.1831 75.4173 10.1039 75.8791 10.1017C78.0993 10.0907 80.3203 10.0943 82.5404 10.1017C83.1379 10.1039 83.7153 10.2212 84.0121 10.7777C84.1524 11.0402 84.2164 11.3664 84.2195 11.6648C84.2387 13.3175 84.2287 14.9708 84.2287 16.6242C84.2303 16.6242 84.2318 16.6242 84.2334 16.6242ZM79.2132 12.5124C79.2132 12.5102 79.2132 12.508 79.2132 12.5066C78.4917 12.5066 77.7701 12.5088 77.0478 12.5051C76.8689 12.5044 76.7433 12.5278 76.7448 12.7426C76.751 13.896 76.7502 15.05 76.7487 16.2033C76.7487 16.3756 76.815 16.4548 77.0069 16.4548C78.4924 16.4519 79.978 16.4526 81.4627 16.4577C81.6578 16.4585 81.7125 16.3837 81.7117 16.2077C81.7063 15.0742 81.7048 13.9407 81.714 12.8072C81.7156 12.5887 81.6424 12.5066 81.4095 12.5095C80.678 12.5176 79.9456 12.5124 79.2132 12.5124Z" fill="#BE3136"/>
<path id="Vector_4" d="M93.3948 17.45C93.3948 17.2059 93.3948 16.9617 93.3948 16.7168C93.3956 14.6258 93.4002 12.5347 93.3932 10.4436C93.3925 10.2009 93.4649 10.1041 93.7309 10.1085C94.3592 10.1195 94.9875 10.1122 95.6158 10.1034C95.8401 10.1005 95.9257 10.1701 95.9257 10.3989C95.918 14.1822 95.9179 17.9662 95.9226 21.7495C95.9226 21.968 95.8478 22.0545 95.615 22.0516C94.9451 22.0435 94.2736 22.0611 93.6045 22.0369C93.458 22.0318 93.2622 21.9255 93.1828 21.8089C92.0742 20.1687 90.9819 18.5183 89.8864 16.8708C89.4724 16.2483 89.0592 15.6258 88.6483 15.0026C88.6106 14.9447 88.5851 14.8795 88.5543 14.8171C88.5119 14.8369 88.4695 14.8575 88.4271 14.8773C88.4202 14.9968 88.407 15.1163 88.407 15.2358C88.407 17.3665 88.4078 19.4971 88.4117 21.6285C88.4125 22.0413 88.4101 22.0487 87.9815 22.0487C87.3848 22.0487 86.7874 22.045 86.1907 22.0494C85.9733 22.0509 85.877 21.9915 85.877 21.7568C85.8854 17.9933 85.887 14.2291 85.8785 10.4656C85.8777 10.1929 85.9486 10.0961 86.2424 10.1034C86.8699 10.1195 87.4997 10.0946 88.1272 10.1166C88.266 10.1217 88.4549 10.2171 88.5281 10.327C90.0545 12.6102 91.5678 14.9015 93.0849 17.1898C93.1535 17.2931 93.2368 17.3885 93.3131 17.4874C93.3393 17.4742 93.367 17.4625 93.3948 17.45Z" fill="#BE3136"/>
<path id="Vector_5" d="M59.979 15.5134C59.979 17.0963 59.9797 18.6793 59.9782 20.2623C59.9782 20.4317 59.9797 20.6018 59.9574 20.7689C59.8572 21.5117 59.5064 21.8673 58.7332 22C58.5181 22.0366 58.2961 22.0469 58.0771 22.0476C55.9626 22.0506 53.8472 22.0491 51.7326 22.0454C51.5445 22.0454 51.3557 22.0256 51.1699 22.0007C50.5269 21.9142 50.1068 21.5344 49.9881 20.9295C49.9596 20.7836 49.9495 20.6326 49.9495 20.4837C49.9472 17.1191 49.9495 13.7537 49.9434 10.3891C49.9426 10.1786 50.0112 10.1038 50.2271 10.106C50.8762 10.1119 51.5253 10.1126 52.1744 10.1031C52.4195 10.0994 52.4719 10.2109 52.4704 10.4162C52.4619 11.2124 52.4642 12.0087 52.4642 12.8057C52.4634 14.9561 52.4642 17.1066 52.4634 19.2571C52.4634 19.6413 52.4665 19.6449 52.8589 19.6449C54.2828 19.6449 55.7074 19.6391 57.1313 19.6486C57.4011 19.6508 57.4689 19.5518 57.4681 19.3143C57.4635 16.3873 57.4666 13.4604 57.4666 10.5335C57.4666 10.1178 57.4643 10.1156 57.8937 10.1126C58.4903 10.109 59.087 10.1119 59.6845 10.1053C59.9088 10.1031 59.9928 10.1808 59.9913 10.4059C59.982 12.1084 59.9867 13.8109 59.9867 15.5126C59.9836 15.5134 59.9813 15.5134 59.979 15.5134Z" fill="#BE3136"/>
<path id="Vector_6" d="M97.5734 16.0571C97.5734 14.1859 97.5781 12.3141 97.568 10.443C97.5665 10.1746 97.6675 10.0991 97.9373 10.1057C98.544 10.1204 99.1522 10.1196 99.7597 10.1042C100.024 10.0976 100.101 10.1842 100.1 10.4327C100.089 11.8067 100.1 13.1807 100.089 14.5547C100.087 14.8026 100.167 14.8825 100.428 14.881C101.884 14.8722 103.34 14.8744 104.795 14.8832C105.038 14.8847 105.096 14.7923 105.094 14.5804C105.086 13.2064 105.097 11.8324 105.08 10.4584C105.076 10.171 105.178 10.0991 105.459 10.1057C106.056 10.1204 106.653 10.1204 107.25 10.1035C107.52 10.0954 107.584 10.1886 107.583 10.432C107.577 14.1962 107.579 17.9597 107.585 21.7239C107.586 21.9652 107.514 22.0619 107.246 22.0553C106.628 22.0399 106.01 22.048 105.392 22.0502C105.184 22.0509 105.07 22.007 105.074 21.7628C105.091 20.3595 105.087 18.9554 105.097 17.5513C105.099 17.3204 104.984 17.269 104.767 17.2698C103.311 17.2756 101.855 17.2756 100.399 17.269C100.167 17.2683 100.088 17.3438 100.09 17.566C100.098 18.94 100.085 20.314 100.103 21.688C100.107 21.9857 100.007 22.0649 99.7096 22.0561C99.1029 22.0377 98.4947 22.0473 97.8872 22.0524C97.6706 22.0546 97.5642 21.9945 97.5649 21.7621C97.5727 19.8609 97.5688 17.9597 97.5688 16.0585C97.5703 16.0571 97.5719 16.0571 97.5734 16.0571Z" fill="#BE3136"/>
<path id="Vector_7" d="M37.3966 10.1059C37.3057 10.1337 37.197 10.1403 37.1268 10.1939C34.5497 12.1317 31.978 14.0761 29.4008 16.0132C29.2012 16.1635 29.1403 16.3036 29.2158 16.547C30.0715 19.3222 30.9157 22.1002 31.7644 24.8776C31.8207 25.0624 31.8901 25.2435 31.9726 25.4817C31.8515 25.4466 31.7999 25.4422 31.7621 25.4187C29.7948 24.2089 27.8282 22.9969 25.8616 21.785C25.0275 21.271 24.198 20.7512 23.3554 20.2511C23.2622 20.1961 23.0602 20.1998 22.9715 20.2599C21.0227 21.5841 19.0831 22.9214 17.1404 24.2544C15.6896 25.2501 14.2372 26.2421 12.7864 27.237C12.2352 27.6146 11.6871 27.9959 11.1374 28.3749C11.1181 28.3566 11.0989 28.339 11.0796 28.3207C11.1436 28.2591 11.2029 28.1916 11.2723 28.1359C14.0468 25.9246 16.8251 23.7184 19.5973 21.5042C22.3371 19.3148 25.0691 17.1174 27.8074 14.9259C29.8087 13.3239 31.8122 11.724 33.8212 10.1308C33.933 10.0421 34.1003 9.97537 34.2429 9.97244C35.2265 9.95337 36.211 9.95337 37.1947 9.94971C37.2216 9.94971 37.2486 9.97024 37.2764 9.98124C37.3157 10.0223 37.3558 10.0641 37.3966 10.1059Z" fill="#132B7D"/>
<path id="Vector_8" d="M69.9779 10.1368C69.7528 10.7835 69.5431 11.3847 69.3335 11.986C69.3042 12.071 69.2672 12.1546 69.2494 12.2419C69.2078 12.4457 69.0791 12.5095 68.8686 12.5087C67.4339 12.5021 66.0001 12.5058 64.5654 12.4999C64.1622 12.4985 64.1522 12.4955 64.1514 12.868C64.146 15.0375 64.1437 17.2078 64.1337 19.3773C64.1322 19.6266 64.2771 19.6413 64.4768 19.6405C66.1835 19.6376 67.8895 19.6391 69.5963 19.6398C69.9964 19.6398 69.9933 19.6405 69.9903 20.0211C69.9864 20.6084 69.981 21.1956 69.991 21.7822C69.9941 21.9802 69.9124 22.0513 69.7158 22.0513C67.5596 22.0484 65.4026 22.0667 63.2464 22.0374C62.1201 22.022 61.6321 21.5175 61.6283 20.4434C61.619 17.537 61.6229 14.6299 61.6267 11.7235C61.6275 11.1303 61.7509 10.5716 62.3938 10.304C62.6636 10.1911 62.9766 10.1207 63.2703 10.1185C65.4057 10.1031 67.5419 10.1104 69.678 10.1119C69.7605 10.1112 69.8415 10.1244 69.9779 10.1368Z" fill="#BE3136"/>
<path id="Vector_9" d="M6.30371 27.6992C6.97208 27.1595 7.63891 26.6184 8.30883 26.081C10.4519 24.3617 12.5966 22.6438 14.7405 20.9252C16.8042 19.2703 18.8694 17.617 20.9316 15.9607C22.5219 14.6827 24.1085 13.4004 25.6965 12.1202C26.5337 11.4449 27.3686 10.7653 28.2112 10.0958C28.3006 10.0247 28.4371 9.97414 28.5519 9.97267C29.5148 9.9602 30.4784 9.96167 31.4413 9.96094C31.469 9.96094 31.4976 9.98073 31.6117 10.0233C23.168 15.957 14.7674 21.8607 6.36692 27.7637C6.34688 27.7417 6.3253 27.7204 6.30371 27.6992Z" fill="#BE3136"/>
<path id="Vector_10" d="M38.41 27.5279C38.41 26.8614 38.4223 26.1942 38.4038 25.5277C38.3961 25.2542 38.504 25.1912 38.7708 25.1948C39.608 25.2066 40.4459 25.208 41.2831 25.1897C41.5738 25.1831 41.5984 25.3099 41.6077 25.5328C41.6169 25.7704 41.519 25.818 41.2947 25.8129C40.6772 25.7997 40.0589 25.8129 39.4422 25.799C39.1863 25.7931 39.0776 25.873 39.0938 26.1253C39.1107 26.3833 39.1069 26.6429 39.0953 26.901C39.0861 27.1209 39.1809 27.2023 39.4106 27.1972C39.9757 27.1855 40.5415 27.2016 41.1058 27.1796C41.3903 27.1686 41.4327 27.2918 41.4404 27.5176C41.4489 27.7508 41.3494 27.8043 41.1251 27.7999C40.5492 27.7874 39.9734 27.8021 39.3975 27.7903C39.1662 27.7859 39.0784 27.8593 39.0899 28.0836C39.1053 28.3916 39.0976 28.7002 39.0876 29.0089C39.0807 29.2164 39.1747 29.2912 39.3875 29.2883C40.0574 29.2802 40.7281 29.2919 41.3972 29.2758C41.6616 29.2692 41.7411 29.3609 41.7457 29.6035C41.7495 29.8638 41.6169 29.8902 41.3934 29.8888C40.5038 29.8807 39.6134 29.8822 38.7237 29.8902C38.5125 29.8917 38.3869 29.8594 38.3907 29.6175C38.4015 28.9209 38.3946 28.2244 38.3946 27.5279C38.4015 27.5279 38.4054 27.5279 38.41 27.5279Z" fill="#132B7D"/>
<path id="Vector_11" d="M48.6451 27.1147C48.6451 26.4615 48.6451 25.8471 48.6451 25.2326C48.6451 24.8902 48.6898 24.8572 49.0413 24.8756C49.2217 24.8851 49.271 24.9628 49.271 25.1212C49.2695 26.625 49.2726 28.128 49.2764 29.6318C49.2764 29.7763 49.2564 29.887 49.0652 29.895C48.8185 29.9053 48.5849 29.9126 48.6443 29.4888C48.0854 29.95 47.4972 30.1025 46.8851 29.8598C46.5844 29.7403 46.2838 29.513 46.0995 29.2586C45.6216 28.5995 45.7295 27.6698 46.2776 27.1338C46.8774 26.5473 47.6198 26.5333 48.6451 27.1147ZM46.4757 28.2864C46.4727 28.936 46.9213 29.4045 47.5481 29.406C48.1879 29.4075 48.6543 28.9492 48.6589 28.3135C48.6628 27.7042 48.1979 27.2423 47.5743 27.2372C46.9267 27.2328 46.4788 27.6602 46.4757 28.2864Z" fill="#132B7D"/>
<path id="Vector_12" d="M63.3548 29.9994C62.2755 29.9657 61.4884 29.4766 61.0737 28.5418C60.6551 27.5982 60.7823 26.6692 61.4923 25.8832C62.2 25.1002 63.1397 24.9403 64.1542 25.2043C64.4456 25.2798 64.7085 25.4682 64.9706 25.6251C65.1487 25.7314 65.1171 25.8422 64.9552 25.9749C64.7247 26.164 64.562 26.1985 64.2961 25.9888C63.7549 25.5613 63.0195 25.5679 62.4012 25.98C61.759 26.4075 61.5224 27.0373 61.5871 27.7529C61.6565 28.5198 62.0589 29.0932 62.8653 29.3226C63.4612 29.492 64.0247 29.4202 64.4896 28.9736C64.6761 28.794 65.124 28.9091 65.178 29.1584C65.1934 29.2288 65.1163 29.341 65.0485 29.4004C64.5721 29.8183 64.0031 30.0082 63.3548 29.9994Z" fill="#132B7D"/>
<path id="Vector_13" d="M93.3948 28.5285C93.0602 28.5285 92.7257 28.5278 92.3911 28.5285C92.0688 28.5292 92.0226 28.6055 92.1729 28.8841C92.4867 29.467 93.3069 29.6114 93.8558 29.1803C93.9784 29.0835 94.0693 28.9383 94.2759 29.085C94.5866 29.3057 94.5882 29.3739 94.2736 29.6041C93.808 29.9458 93.2807 30.0132 92.728 29.9289C91.7482 29.7793 91.1661 28.747 91.4999 27.7821C91.8707 26.7116 93.3254 26.2915 94.1703 27.0152C94.5797 27.3656 94.7107 27.8261 94.7208 28.3313C94.7246 28.5102 94.6205 28.5454 94.461 28.5432C94.1056 28.538 93.7502 28.5417 93.3948 28.5417C93.3948 28.5388 93.3948 28.5336 93.3948 28.5285ZM93.0695 28.0563C93.2892 28.0563 93.5081 28.0563 93.7278 28.0563C94.0385 28.0563 94.0986 27.9727 93.9861 27.7C93.825 27.3077 93.5043 27.1281 93.0132 27.1537C92.6254 27.1743 92.1937 27.4969 92.1012 27.8283C92.0573 27.9874 92.1244 28.0548 92.2855 28.0563C92.5468 28.0578 92.8081 28.0563 93.0695 28.0563Z" fill="#132B7D"/>
<path id="Vector_14" d="M70.9366 29.9592C69.9398 29.9497 69.1828 29.2231 69.199 28.2912C69.2152 27.3755 69.9969 26.6577 70.962 26.6716C71.9565 26.6855 72.7112 27.4136 72.7004 28.3462C72.6889 29.259 71.9133 29.968 70.9366 29.9592ZM70.9428 27.2391C70.3091 27.2391 69.8604 27.6981 69.8627 28.3433C69.8658 28.9658 70.3376 29.4042 71.0006 29.3998C71.5826 29.3961 72.0413 28.9108 72.0351 28.3051C72.029 27.6893 71.568 27.2391 70.9428 27.2391Z" fill="#132B7D"/>
<path id="Vector_15" d="M77.6039 27.0395C77.8838 26.9185 78.1227 26.769 78.3848 26.7096C79.222 26.5211 79.8472 26.9963 79.8596 27.8086C79.8688 28.415 79.8573 29.0221 79.8711 29.6284C79.8765 29.8469 79.784 29.9048 79.5736 29.8953C79.3816 29.8865 79.2213 29.8887 79.229 29.6328C79.2436 29.1262 79.2436 28.6188 79.2375 28.1115C79.2305 27.5454 78.9831 27.2543 78.5174 27.2433C77.9871 27.2309 77.6232 27.5498 77.5978 28.0953C77.5746 28.5917 77.5769 29.0903 77.6001 29.5866C77.6124 29.8601 77.4837 29.8968 77.2447 29.8975C76.9964 29.8975 76.924 29.8139 76.9286 29.5778C76.944 28.7728 76.9317 27.967 76.9386 27.162C76.9402 27.0029 76.8353 26.7631 77.1391 26.7484C77.3626 26.7382 77.6779 26.6436 77.6039 27.0395Z" fill="#132B7D"/>
<path id="Vector_16" d="M55.9399 29.5259C55.5714 29.8705 55.1891 29.9857 54.7481 29.9578C54.2108 29.9233 53.7729 29.6139 53.7305 29.111C53.6689 28.3888 53.6843 27.6607 53.6758 26.9348C53.6735 26.7053 53.8647 26.7457 54.0189 26.7405C54.2054 26.7339 54.3141 26.7867 54.311 26.992C54.3033 27.5595 54.2964 28.127 54.3149 28.6938C54.3264 29.0582 54.5515 29.314 54.8584 29.3786C55.2515 29.4614 55.6578 29.3082 55.8143 28.9738C55.9006 28.7891 55.9407 28.5735 55.9507 28.3697C55.9708 27.9628 55.9592 27.5536 55.953 27.146C55.9492 26.9282 55.9176 26.7347 56.2683 26.7325C56.6037 26.7295 56.6037 26.8923 56.6014 27.1277C56.5914 27.9239 56.5991 28.7202 56.5968 29.5164C56.596 29.6726 56.68 29.8889 56.3886 29.8903C56.1697 29.8903 55.8675 29.9769 55.9399 29.5259Z" fill="#132B7D"/>
<path id="Vector_17" d="M84.8886 27.1492C85.0389 27.0341 85.1075 26.9813 85.1769 26.9292C85.5994 26.6125 86.0712 26.6132 86.5437 26.7775C86.9631 26.9234 87.1535 27.2694 87.1743 27.6646C87.209 28.3392 87.1982 29.0166 87.2013 29.6927C87.2021 29.9221 87.0209 29.8891 86.8637 29.8913C86.6732 29.8935 86.5422 29.8606 86.5476 29.6303C86.5599 29.0738 86.5638 28.5166 86.5499 27.9594C86.5414 27.5906 86.3256 27.323 86.0303 27.2562C85.6333 27.1668 85.271 27.2826 85.089 27.6206C84.9796 27.8252 84.9233 28.0708 84.9087 28.3025C84.8824 28.7182 84.8979 29.1376 84.911 29.5548C84.9171 29.7564 84.9156 29.9001 84.628 29.8965C84.3659 29.8935 84.2634 29.8386 84.2711 29.5599C84.2927 28.7644 84.2703 27.9689 84.2773 27.1727C84.2788 27.0165 84.1578 26.776 84.4631 26.7496C84.6936 26.7298 84.9935 26.6675 84.8886 27.1492Z" fill="#132B7D"/>
<path id="Vector_18" d="M100.545 29.9577C99.6839 29.9474 99.1381 29.6006 98.8675 28.9349C98.6193 28.3256 98.8197 27.5088 99.3254 27.0623C99.8758 26.5769 101.045 26.5498 101.597 27.022C101.651 27.0682 101.67 27.2478 101.631 27.2779C101.491 27.3849 101.423 27.6503 101.128 27.481C100.923 27.3637 100.677 27.2735 100.442 27.2544C100.008 27.2192 99.6546 27.5066 99.5027 27.9458C99.3431 28.4085 99.4896 28.9144 99.862 29.1893C100.224 29.4555 100.69 29.4738 101.06 29.2355C101.3 29.0808 101.566 29.1468 101.665 29.4078C101.687 29.4665 101.62 29.5904 101.556 29.6388C101.242 29.8756 100.877 29.9804 100.545 29.9577Z" fill="#132B7D"/>
<path id="Vector_19" d="M105.983 28.3143C105.983 28.0752 105.963 27.8347 105.988 27.5987C106.017 27.3274 105.908 27.246 105.635 27.2541C105.513 27.2577 105.327 27.2049 105.277 27.1206C105.162 26.9241 105.297 26.7606 105.542 26.7474C105.972 26.724 105.972 26.724 105.972 26.2862C105.972 25.8866 106.032 25.8199 106.405 25.883C106.49 25.8976 106.61 26.0186 106.617 26.0993C106.673 26.7078 106.666 26.7144 107.268 26.7416C107.461 26.7504 107.521 26.8317 107.526 26.9996C107.531 27.1668 107.48 27.2724 107.282 27.2651C107.272 27.2643 107.261 27.2651 107.251 27.2658C106.619 27.2951 106.618 27.2951 106.618 27.8978C106.618 28.2263 106.61 28.5547 106.622 28.8825C106.636 29.2821 106.832 29.4251 107.251 29.3899C107.349 29.3818 107.533 29.4309 107.541 29.4742C107.569 29.6428 107.605 29.8914 107.356 29.9112C107.033 29.9368 106.686 29.9229 106.379 29.8342C106.227 29.7902 106.105 29.5541 106.035 29.3803C105.97 29.2205 105.988 29.0284 105.98 28.8502C105.973 28.6713 105.979 28.4924 105.979 28.3135C105.98 28.3143 105.981 28.3143 105.983 28.3143Z" fill="#132B7D"/>
</g>
</svg>
