<svg width="56" height="57" viewBox="0 0 56 57" fill="none" xmlns="http://www.w3.org/2000/svg">
<g id="MESSAGE" clip-path="url(#clip0_631_31498)">
<g id="Group">
<g id="Layer 2">
<g id="06.messenger">
<path id="Vector" d="M28 56.1953C43.464 56.1953 56 43.6593 56 28.1953C56 12.7313 43.464 0.195312 28 0.195312C12.536 0.195312 0 12.7313 0 28.1953C0 43.6593 12.536 56.1953 28 56.1953Z" fill="#2B46A8"/>
<g id="Group 1000005679">
<path id="Vector_2" d="M19.6567 21.2035C19.7004 21.9603 19.6227 22.6879 19.1277 23.3083C18.8439 23.664 18.5464 24.0092 18.2626 24.3649C16.0965 27.0787 13.932 29.7941 11.767 32.509C11.7397 32.5434 11.7158 32.581 11.6814 32.6302C11.7651 32.6709 11.8425 32.6549 11.9156 32.6549C14.4226 32.6556 16.9292 32.658 19.4358 32.651C19.6273 32.6506 19.6782 32.7002 19.6684 32.8875C19.652 33.2053 19.6653 33.5247 19.6637 33.8437C19.6606 34.4766 19.2728 34.8628 18.6375 34.8632C15.3037 34.864 11.9699 34.8632 8.63651 34.8636C8.55832 34.8636 8.48053 34.8675 8.40234 34.8694V33.4637C8.5505 33.2612 8.62517 33.0169 8.78545 32.819C11.0196 30.0611 13.2502 27.3008 15.482 24.5408C15.7416 24.2199 16.0011 23.8993 16.2885 23.544H16.0371C14.3581 23.544 12.6787 23.544 10.9996 23.544C10.2706 23.544 9.54189 23.5424 8.81281 23.5455C8.70101 23.5459 8.63612 23.5389 8.63807 23.3939C8.64745 22.666 8.64511 21.9377 8.64706 21.2094C8.69241 21.207 8.73815 21.2031 8.78349 21.2031C12.4078 21.2031 16.032 21.2039 19.6563 21.2043L19.6567 21.2035Z" fill="white"/>
<path id="Vector_3" d="M41.6572 34.9877C41.4437 34.9349 41.2315 34.879 41.0172 34.8302C38.5872 34.2762 36.8445 32.1148 36.8167 29.6191C36.789 27.1137 38.4864 24.9171 40.9183 24.3112C43.8913 23.5708 46.8823 25.4292 47.5285 28.4155C47.541 28.473 47.5226 28.55 47.598 28.584V30.5363C47.5218 30.5781 47.5371 30.6602 47.523 30.7247C47.0449 32.9346 45.186 34.6359 42.939 34.9197C42.8749 34.9279 42.7924 34.9048 42.7521 34.9873H42.5176C42.3092 34.9259 42.1009 34.922 41.8921 34.9873H41.6576L41.6572 34.9877ZM45.4147 29.5699C45.4198 27.8123 44.009 26.3854 42.2541 26.3733C40.5035 26.3612 39.054 27.7861 39.0454 29.5273C39.0364 31.3044 40.4586 32.7387 42.2307 32.7399C43.9898 32.7407 45.41 31.3271 45.4147 29.5703V29.5699Z" fill="white"/>
<path id="Vector_4" d="M26.1 34.945C25.7872 34.9438 25.4745 34.9422 25.1617 34.9407C24.4624 34.8777 23.7908 34.7002 23.177 34.3641C21.161 33.2597 20.1603 31.5459 20.2474 29.2519C20.3459 26.6578 22.5011 24.4584 25.0843 24.234C26.3943 24.1203 27.5882 24.4264 28.675 25.1613C28.7012 25.1789 28.7297 25.1934 28.7907 25.2285C28.7907 25.0202 28.7958 24.8364 28.7887 24.6527C28.7848 24.5464 28.8134 24.5049 28.9287 24.5057C29.5733 24.5108 30.218 24.5104 30.8626 24.5057C30.9693 24.5049 31.0021 24.5452 30.9912 24.6429C30.9877 24.675 30.9908 24.7078 30.9908 24.7403C30.9908 28.0389 30.9896 31.3371 30.9947 34.6357C30.9947 34.8093 30.958 34.873 30.7731 34.8617C30.4877 34.8445 30.2004 34.8574 29.9138 34.8574C29.2348 34.8574 28.924 34.6131 28.7684 33.934C27.9643 34.5087 27.0695 34.8273 26.1003 34.9446L26.1 34.945ZM28.7805 29.6003C28.8087 27.904 27.4088 26.458 25.7063 26.4256C23.9178 26.3912 22.4777 27.7649 22.4503 29.5311C22.4229 31.2773 23.8127 32.7089 25.5687 32.7429C27.3103 32.7769 28.7508 31.3672 28.7805 29.6003Z" fill="white"/>
<path id="Vector_5" d="M32.9021 21.2031C33.6823 21.2047 34.4622 21.2059 35.2425 21.2074C35.2449 21.2723 35.2496 21.3372 35.2496 21.4021C35.2496 25.8117 35.2488 30.2217 35.2542 34.6314C35.2542 34.8151 35.2171 34.8761 35.0228 34.8691C34.5873 34.853 34.1507 34.8675 33.7144 34.8632C33.2234 34.8585 32.8923 34.5321 32.8919 34.0411C32.8899 29.7941 32.8907 25.5467 32.8911 21.2997C32.8911 21.2676 32.8981 21.2356 32.9021 21.2035V21.2031Z" fill="white"/>
</g>
</g>
</g>
</g>
</g>
<defs>
<clipPath id="clip0_631_31498">
<rect width="56" height="56" fill="white" transform="translate(0 0.203125)"/>
</clipPath>
</defs>
</svg>
