<svg width="56" height="57" viewBox="0 0 56 57" fill="none" xmlns="http://www.w3.org/2000/svg">
<g clip-path="url(#clip0_6303_26313)">
<path d="M28 56.3895C43.464 56.3895 56 43.8534 56 28.3895C56 12.9255 43.464 0.389465 28 0.389465C12.536 0.389465 0 12.9255 0 28.3895C0 43.8534 12.536 56.3895 28 56.3895Z" fill="#2B46A8"/>
<path d="M42.5119 29.5678C41.2879 28.3439 39.0626 28.3439 37.8386 29.5678L30.2723 37.0228C29.9385 37.3567 29.6047 37.8017 29.4934 38.3581L28.047 42.5863C27.9357 43.0314 28.047 43.4764 28.2695 43.699C28.492 43.9215 28.7146 44.0328 29.0484 44.0328C29.1596 44.0328 29.2709 44.0328 29.3822 43.9215L33.6104 42.475C34.0555 42.3637 34.5005 42.0299 34.9456 41.6961L42.4006 34.2411C43.0682 33.5735 43.402 32.7946 43.402 31.9045C43.402 31.0143 43.1795 30.1242 42.5119 29.5678ZM40.9541 32.6834L33.4991 40.1384C33.3879 40.2496 33.2766 40.3609 33.054 40.3609L30.9399 41.0285L31.6076 38.9144C31.6076 38.8031 31.7188 38.5806 31.8301 38.4693L39.2851 31.0143C39.7302 30.5693 40.3978 30.5693 40.8429 31.0143C41.0654 31.2369 41.1767 31.4594 41.1767 31.7932C41.1767 32.127 41.1767 32.4608 40.9541 32.6834ZM25.8216 38.4693H19.1455C17.2539 38.4693 15.8074 37.0228 15.8074 35.1313V19.5537C15.8074 17.6621 17.2539 16.2156 19.1455 16.2156H31.385C33.2766 16.2156 34.7231 17.6621 34.7231 19.5537V27.3425C34.7231 28.0101 35.1682 28.4552 35.8358 28.4552C36.5034 28.4552 36.9485 28.0101 36.9485 27.3425V19.5537C36.9485 16.4381 34.5005 13.9902 31.385 13.9902H19.1455C16.0299 13.9902 13.582 16.4381 13.582 19.5537V35.1313C13.582 38.2468 16.0299 40.6947 19.1455 40.6947H25.8216C26.4892 40.6947 26.9343 40.2496 26.9343 39.582C26.9343 38.9144 26.4892 38.4693 25.8216 38.4693Z" fill="white"/>
<path d="M42.6977 31.9004L39.8977 29.8004L30.7977 38.2004L30.0977 42.4004L32.8977 41.7004L42.6977 31.9004Z" fill="white"/>
<path d="M30.2753 20.6676H20.2611C19.5935 20.6676 19.1484 21.1127 19.1484 21.7803C19.1484 22.4479 19.5935 22.893 20.2611 22.893H30.2753C30.9429 22.893 31.388 22.4479 31.388 21.7803C31.388 21.1127 30.9429 20.6676 30.2753 20.6676ZM30.2753 26.231H20.2611C19.5935 26.231 19.1484 26.6761 19.1484 27.3437C19.1484 28.0113 19.5935 28.4564 20.2611 28.4564H30.2753C30.9429 28.4564 31.388 28.0113 31.388 27.3437C31.388 26.6761 30.9429 26.231 30.2753 26.231ZM26.9372 31.7945H20.2611C19.5935 31.7945 19.1484 32.2395 19.1484 32.9072C19.1484 33.5748 19.5935 34.0198 20.2611 34.0198H26.9372C27.6049 34.0198 28.0499 33.5748 28.0499 32.9072C28.0499 32.2395 27.6049 31.7945 26.9372 31.7945Z" fill="white"/>
</g>
<defs>
<clipPath id="clip0_6303_26313">
<rect width="56" height="56" fill="white" transform="translate(0 0.400391)"/>
</clipPath>
</defs>
</svg>
