<svg width="56" height="56" viewBox="0 0 56 56" fill="none" xmlns="http://www.w3.org/2000/svg">
<g id="MESSAGE" clip-path="url(#clip0_631_31491)">
<g id="Group">
<g id="Layer 2">
<g id="06.messenger">
<path id="Vector" d="M28 55.9766C43.464 55.9766 56 43.4405 56 27.9766C56 12.5126 43.464 -0.0234375 28 -0.0234375C12.536 -0.0234375 0 12.5126 0 27.9766C0 43.4405 12.536 55.9766 28 55.9766Z" fill="#2B46A8"/>
<path id="Vector_2" d="M45.5 27.3144C45.5 36.2648 37.6632 43.5194 28 43.5194C26.3035 43.5205 24.6146 43.2925 22.9791 42.8416L17.0195 46.1094V39.9303C13.0455 36.9617 10.5 32.4276 10.5 27.3144C10.5 18.3639 18.3368 11.1094 28 11.1094C37.6632 11.1094 45.5 18.3671 45.5 27.3144Z" fill="white"/>
<path id="Vector_3" d="M39.3119 22.7812L29.7442 32.9313L25.2897 28.1808L16.5938 32.9344L26.1615 22.7812L30.7274 27.5317L39.3119 22.7812Z" fill="#2B46A8"/>
</g>
</g>
</g>
</g>
<defs>
<clipPath id="clip0_631_31491">
<rect width="56" height="56" fill="white"/>
</clipPath>
</defs>
</svg>
