<svg width="56" height="57" viewBox="0 0 56 57" fill="none" xmlns="http://www.w3.org/2000/svg">
<g id="MESSAGE" clip-path="url(#clip0_631_31508)">
<g id="Group">
<g id="Layer 2">
<g id="06.messenger">
<path id="Vector" d="M28 56.3984C43.464 56.3984 56 43.8624 56 28.3984C56 12.9345 43.464 0.398438 28 0.398438C12.536 0.398438 0 12.9345 0 28.3984C0 43.8624 12.536 56.3984 28 56.3984Z" fill="#2B46A8"/>
<path id="Vector_2" d="M22.8607 20.0083C22.4721 19.1414 22.0635 19.1215 21.6949 19.1115C21.3959 19.1016 21.0472 19.1016 20.6985 19.1016C20.3497 19.1016 19.7917 19.2311 19.3135 19.7492C18.8352 20.2674 17.5 21.5228 17.5 24.0836C17.5 26.6344 19.3633 29.1055 19.6223 29.4542C19.8814 29.803 23.2194 35.2135 28.4904 37.2959C32.8746 39.0297 33.7713 38.6809 34.7179 38.5913C35.6745 38.5016 37.7868 37.3358 38.2253 36.1202C38.6537 34.9046 38.6537 33.8683 38.5242 33.6491C38.3946 33.4299 38.0459 33.3004 37.5278 33.0413C37.0096 32.7822 34.4588 31.5268 33.9806 31.3474C33.5023 31.168 33.1535 31.0883 32.8148 31.6065C32.466 32.1246 31.4696 33.2904 31.1707 33.6391C30.8718 33.9879 30.5629 34.0277 30.0448 33.7687C29.5266 33.5096 27.8527 32.9616 25.8698 31.188C24.3254 29.8129 23.2792 28.1091 22.9802 27.5909C22.6813 27.0728 22.9503 26.7938 23.2094 26.5348C23.4386 26.3056 23.7275 25.9269 23.9866 25.628C24.2457 25.3291 24.3353 25.1099 24.5047 24.7612C24.6741 24.4124 24.5944 24.1135 24.4649 23.8544C24.3353 23.5954 23.319 21.0346 22.8607 20.0083Z" fill="white"/>
</g>
</g>
</g>
</g>
<defs>
<clipPath id="clip0_631_31508">
<rect width="56" height="56" fill="white" transform="translate(0 0.398438)"/>
</clipPath>
</defs>
</svg>
