<svg width="20" height="29" viewBox="0 0 20 29" fill="none" xmlns="http://www.w3.org/2000/svg">
<g id="pin school">
<path id="Vector" d="M20 8.95383C20 17.276 11.5632 24.25 10.25 24.25C8.93676 24.25 0.5 17.6689 0.5 8.95383C0.5 4.1506 4.86042 0.25 10.25 0.25C15.6396 0.25 20 4.14255 20 8.95383Z" fill="#132B7D"/>
<path id="Vector_2" fill-rule="evenodd" clip-rule="evenodd" d="M14.5843 7.72616C14.6677 7.72579 14.7445 7.77159 14.7838 7.84516L16.3256 10.732C16.4051 10.8808 16.2985 11.0609 16.1298 11.0629L5.62027 11.1875C5.45153 11.1895 5.34073 11.0119 5.41669 10.8612L6.91728 7.88464C6.95536 7.8091 7.03258 7.76131 7.11717 7.76092L8.9271 7.75266C8.9882 7.75238 9.04656 7.72726 9.08877 7.68308L10.3662 6.34588C10.4078 6.30226 10.4303 6.24375 10.4284 6.18346L10.3468 3.56167C10.3432 3.44607 10.4278 3.34656 10.5425 3.33157L10.9092 3.28362C11.0449 3.26588 11.1649 3.37245 11.1633 3.50934L11.1598 3.81366C11.1583 3.94471 11.2686 4.04931 11.3994 4.04079L12.2885 3.98287C12.4183 3.97442 12.5282 4.07738 12.5282 4.2074V4.38765C12.5282 4.49022 12.5975 4.57981 12.6968 4.60549L13.6876 4.86172C13.8885 4.91367 13.918 5.18677 13.7328 5.28037L12.5153 5.89557C12.376 5.966 12.2093 5.87466 12.1937 5.7193C12.1814 5.59647 12.0714 5.50719 11.9486 5.52039L11.3432 5.58549C11.2289 5.59778 11.1423 5.69425 11.1423 5.8092V6.2147C11.1423 6.27622 11.1675 6.33506 11.212 6.37752L12.5694 7.6723C12.6115 7.71246 12.6676 7.73475 12.7258 7.73448L14.5843 7.72616ZM10.9451 7.39531C10.8543 7.30558 10.7071 7.3093 10.6209 7.40351L8.32631 9.91245C8.19426 10.0568 8.29669 10.2893 8.49234 10.2893H13.3261C13.5272 10.2893 13.6273 10.0456 13.4843 9.90426L10.9451 7.39531ZM10.8309 9.87868C9.74973 9.87868 9.79784 8.3415 10.8135 8.3415C11.8292 8.3415 11.8199 9.87868 10.8309 9.87868ZM6.06373 12.0419C6.06381 11.9167 6.16608 11.8156 6.29127 11.8171L15.5327 11.9213C15.6572 11.9227 15.7569 12.0249 15.7552 12.1493L15.7107 15.3857C15.709 15.5128 15.8128 15.6161 15.9399 15.6137L16.1688 15.6094C16.2998 15.6069 16.4053 15.7166 16.3976 15.8474L16.3573 16.5381C16.3504 16.6571 16.2519 16.75 16.1327 16.75H5.6327C5.50843 16.75 5.4077 16.6493 5.4077 16.525V16.0372C5.4077 15.9147 5.50566 15.8148 5.62811 15.8123L5.84095 15.8079C5.96334 15.8054 6.06127 15.7055 6.06136 15.5831L6.06373 12.0419ZM14.4581 14.6892C14.5789 14.6845 14.6744 14.5853 14.6744 14.4644V13.4195C14.6744 13.2957 14.5744 13.1952 14.4506 13.1945L13.1319 13.1876C13.0049 13.1869 12.9025 13.2915 12.9058 13.4185L12.9351 14.5199C12.9384 14.6452 13.0434 14.7436 13.1686 14.7388L14.4581 14.6892ZM11.5466 15.6981C11.6667 15.6959 11.7638 15.5997 11.7673 15.4797L11.8278 13.4113C11.8315 13.285 11.7305 13.1804 11.6041 13.1798L10.1206 13.1716C9.99316 13.1709 9.89059 13.2761 9.89445 13.4034L9.95816 15.5052C9.96189 15.6283 10.064 15.7256 10.1872 15.7233L11.5466 15.6981ZM8.63263 14.6904C8.7529 14.6851 8.84765 14.586 8.84765 14.4656V13.3875C8.84765 13.2637 8.74762 13.1632 8.62382 13.1625L7.53755 13.1569C7.41053 13.1562 7.30815 13.2608 7.31146 13.3877L7.34088 14.5184C7.34416 14.6443 7.45003 14.7429 7.57579 14.7374L8.63263 14.6904Z" fill="white"/>
<g id="Ellipse 2165" filter="url(#filter0_f_524_15643)">
<ellipse cx="10.5" cy="26.2797" rx="4.99951" ry="0.970093" fill="#132B7D" fill-opacity="0.5"/>
</g>
</g>
<defs>
<filter id="filter0_f_524_15643" x="4.00049" y="23.8096" width="12.999" height="4.94043" filterUnits="userSpaceOnUse" color-interpolation-filters="sRGB">
<feFlood flood-opacity="0" result="BackgroundImageFix"/>
<feBlend mode="normal" in="SourceGraphic" in2="BackgroundImageFix" result="shape"/>
<feGaussianBlur stdDeviation="0.75" result="effect1_foregroundBlur_524_15643"/>
</filter>
</defs>
</svg>
