<svg xmlns="http://www.w3.org/2000/svg" width="16" height="17" viewBox="0 0 16 17" fill="none">
  <path d="M13.2001 6.52955L13.6689 5.94408V5.94408L13.2001 6.52955ZM9.46745 3.54097L8.99869 4.12643V4.12643L9.46745 3.54097ZM6.84701 3.50451L7.29937 4.10273L7.29937 4.10273L6.84701 3.50451ZM2.84635 6.5297L2.39399 5.93148L2.84635 6.5297ZM2.26888 7.03032L1.67016 6.57861L1.67016 6.57861L2.26888 7.03032ZM2.05083 7.4687L1.32942 7.26359L2.05083 7.4687ZM8.51432 2.91076L8.72041 2.18963V2.18963L8.51432 2.91076ZM7.81702 2.90099L7.63098 2.17443L7.63098 2.17443L7.81702 2.90099ZM14 8.18757L13.25 8.18756V8.18757H14ZM13.9525 7.45666L14.6756 7.25755L14.6756 7.25755L13.9525 7.45666ZM13.746 7.02837L13.1387 7.46839L13.1387 7.46839L13.746 7.02837ZM13.2716 14.358L13.6121 15.0263L13.6121 15.0263L13.2716 14.358ZM13.8548 13.7753L13.1866 13.4348L13.8548 13.7753ZM2.72786 14.358L2.38737 15.0263L2.38737 15.0263L2.72786 14.358ZM2.14532 13.7755L1.47707 14.116H1.47707L2.14532 13.7755ZM3.44352 6.8984C3.1095 6.65345 2.64015 6.72566 2.3952 7.05969C2.15025 7.39371 2.22245 7.86306 2.55648 8.10801L3.44352 6.8984ZM6.73842 10.2447L7.21719 9.66741C7.20572 9.6579 7.19397 9.64873 7.18195 9.63992L6.73842 10.2447ZM9.26172 10.2447L9.70524 10.8495L9.26172 10.2447ZM13.4437 8.10801C13.7777 7.86306 13.8499 7.39371 13.6049 7.05969C13.36 6.72566 12.8906 6.65345 12.5566 6.8984L13.4437 8.10801ZM6.73978 10.2458L6.26101 10.8232L6.27823 10.8374L6.29626 10.8506L6.73978 10.2458ZM7.66584 10.8074L7.47803 11.5335L7.47804 11.5335L7.66584 10.8074ZM8.33398 10.8074L8.52179 11.5335H8.52179L8.33398 10.8074ZM13.6689 5.94408L9.9362 2.9555L8.99869 4.12643L12.7314 7.11501L13.6689 5.94408ZM6.39465 2.90629L2.39399 5.93148L3.29871 7.12792L7.29937 4.10273L6.39465 2.90629ZM1.25 8.2314V12.37H2.75V8.2314H1.25ZM2.39399 5.93148C2.1175 6.14055 1.85977 6.3273 1.67016 6.57861L2.8676 7.48203C2.90187 7.4366 2.95423 7.38841 3.29871 7.12792L2.39399 5.93148ZM2.75 8.2314C2.75 7.79888 2.75672 7.7284 2.77224 7.67381L1.32942 7.26359C1.24328 7.56656 1.25 7.88539 1.25 8.2314H2.75ZM1.67016 6.57861C1.51514 6.78409 1.39972 7.01635 1.32942 7.26359L2.77224 7.67381C2.79198 7.60437 2.82432 7.53938 2.8676 7.48203L1.67016 6.57861ZM9.9362 2.9555C9.52661 2.62756 9.15843 2.31481 8.72041 2.18963L8.30823 3.63189C8.38567 3.65402 8.48134 3.71222 8.99869 4.12643L9.9362 2.9555ZM7.29937 4.10273C7.82812 3.70291 7.92507 3.64752 8.00305 3.62755L7.63098 2.17443C7.18963 2.28744 6.81304 2.58991 6.39465 2.90629L7.29937 4.10273ZM8.72041 2.18963C8.36532 2.08815 7.9892 2.08271 7.63098 2.17443L8.00305 3.62755C8.10306 3.60195 8.20852 3.60339 8.30823 3.63189L8.72041 2.18963ZM14.75 8.18757C14.75 7.85758 14.7563 7.55076 14.6756 7.25755L13.2294 7.65576C13.2437 7.70778 13.25 7.77469 13.25 8.18756L14.75 8.18757ZM12.7314 7.11501C13.0567 7.37546 13.1062 7.42352 13.1387 7.46839L14.3534 6.58836C14.1744 6.34134 13.9312 6.15408 13.6689 5.94408L12.7314 7.11501ZM14.6756 7.25755C14.6088 7.01508 14.4985 6.78871 14.3534 6.58836L13.1387 7.46839C13.1808 7.52662 13.2114 7.59039 13.2294 7.65577L14.6756 7.25755ZM11.8687 15.2532C12.229 15.2532 12.5443 15.2538 12.8039 15.2326C13.0723 15.2106 13.3463 15.1617 13.6121 15.0263L12.9311 13.6898C12.9119 13.6995 12.8571 13.7232 12.6817 13.7376C12.4974 13.7526 12.2537 13.7532 11.8687 13.7532V15.2532ZM13.25 12.3723C13.25 12.7573 13.2494 13.001 13.2343 13.1853C13.22 13.3609 13.1963 13.4157 13.1866 13.4348L14.5231 14.1158C14.6585 13.85 14.7074 13.5759 14.7294 13.3075C14.7506 13.0479 14.75 12.7325 14.75 12.3723H13.25ZM13.6121 15.0263C14.0035 14.8269 14.323 14.5085 14.5231 14.1158L13.1866 13.4348C13.131 13.544 13.0415 13.6335 12.9311 13.6898L13.6121 15.0263ZM4.13127 13.7532C3.74627 13.7532 3.50247 13.7526 3.31803 13.7376C3.1423 13.7232 3.08746 13.6995 3.06836 13.6898L2.38737 15.0263C2.6532 15.1617 2.92743 15.2106 3.19586 15.2326C3.45556 15.2538 3.771 15.2532 4.13127 15.2532V13.7532ZM1.25 12.37C1.25 12.731 1.24942 13.0469 1.27066 13.3069C1.29261 13.5756 1.34154 13.85 1.47707 14.116L2.81358 13.435C2.80378 13.4158 2.78006 13.3608 2.76568 13.1847C2.75058 13 2.75 12.7557 2.75 12.37H1.25ZM3.06836 13.6898C2.9586 13.6338 2.86951 13.5448 2.81358 13.435L1.47707 14.116C1.6768 14.508 1.99536 14.8265 2.38737 15.0263L3.06836 13.6898ZM2.55648 8.10801L6.2949 10.8495L7.18195 9.63992L3.44352 6.8984L2.55648 8.10801ZM9.70524 10.8495L13.4437 8.10801L12.5566 6.8984L8.8182 9.63992L9.70524 10.8495ZM6.25966 10.822L6.26101 10.8232L7.21855 9.66854L7.21719 9.66741L6.25966 10.822ZM6.29626 10.8506C6.69588 11.1437 7.05694 11.4245 7.47803 11.5335L7.85364 10.0812C7.77924 10.062 7.68792 10.0111 7.1833 9.64104L6.29626 10.8506ZM8.8182 9.63992C8.31268 10.0106 8.22077 10.062 8.14618 10.0812L8.52179 11.5335C8.94313 11.4245 9.30494 11.1431 9.70524 10.8495L8.8182 9.63992ZM7.47804 11.5335C7.82019 11.622 8.17963 11.622 8.52179 11.5335L8.14618 10.0812C8.05038 10.106 7.94945 10.106 7.85364 10.0812L7.47804 11.5335ZM4.13127 15.2532H11.8687V13.7532H4.13127V15.2532ZM14.75 12.3723V8.18757H13.25V12.3723H14.75Z" fill="#6196F6"/>
</svg>