<svg xmlns="http://www.w3.org/2000/svg" width="24" height="25" viewBox="0 0 24 25" fill="none">
  <path d="M13.204 11.774C13.578 11.884 13.934 12.048 14.261 12.259C14.596 12.479 14.876 12.775 15.077 13.121C15.286 13.505 15.392 13.936 15.384 14.373C15.4016 14.9365 15.2336 15.4902 14.906 15.949C14.5616 16.4201 14.0887 16.7819 13.544 16.991C12.9577 17.2249 12.3301 17.3375 11.699 17.322C10.9567 17.3429 10.2204 17.1837 9.553 16.858C9.11438 16.6272 8.73777 16.2941 8.455 15.887C8.17205 15.4955 8.01351 15.0279 8 14.545C8 14.328 8.08623 14.1198 8.23973 13.9663C8.39323 13.8128 8.60142 13.7265 8.8185 13.7265C9.03558 13.7265 9.24377 13.8128 9.39727 13.9663C9.55077 14.1198 9.637 14.328 9.637 14.545C9.653 14.695 9.71 14.837 9.802 14.957C9.932 15.144 10.105 15.297 10.306 15.404C10.741 15.608 11.219 15.704 11.699 15.686C12.1144 15.6993 12.5283 15.6289 12.916 15.479C13.176 15.386 13.404 15.219 13.572 15.001C13.6973 14.8269 13.7594 14.6152 13.748 14.401C13.7563 14.2361 13.723 14.0717 13.651 13.923C13.5766 13.8011 13.475 13.698 13.354 13.622C13.1601 13.4996 12.9501 13.4047 12.73 13.34C12.55 13.286 12.355 13.233 12.152 13.18L12.137 13.178C12.1225 13.1737 12.1078 13.17 12.093 13.167C11.9579 13.1319 11.8222 13.0993 11.686 13.069C11.325 12.991 11.074 12.929 10.917 12.881L10.907 12.875C10.9045 12.8734 10.9018 12.872 10.899 12.871C10.536 12.783 10.179 12.671 9.829 12.537C9.36753 12.3517 8.96224 12.0495 8.653 11.66C8.33225 11.2394 8.16468 10.7219 8.178 10.193C8.178 9.66303 8.352 9.14603 8.673 8.72303C9.007 8.29703 9.454 7.97303 9.963 7.78903C10.5254 7.58635 11.1203 7.48873 11.718 7.50103C12.188 7.49603 12.657 7.56103 13.108 7.69403C13.498 7.80803 13.864 7.99403 14.187 8.24203C14.467 8.45403 14.699 8.72003 14.872 9.02603C14.9748 9.21712 14.9974 9.44121 14.935 9.649C14.8725 9.85679 14.7301 10.0313 14.539 10.134C14.4444 10.1849 14.3407 10.2167 14.2338 10.2275C14.1269 10.2383 14.0189 10.2279 13.916 10.197C13.7082 10.1346 13.5338 9.99212 13.431 9.80103C13.3614 9.6913 13.271 9.5962 13.165 9.52103C13.0012 9.40141 12.8173 9.31201 12.622 9.25703C12.3279 9.17258 12.0229 9.13214 11.717 9.13703C11.3218 9.12553 10.9278 9.18549 10.554 9.31403C10.331 9.39003 10.134 9.52403 9.981 9.70403C9.87201 9.84334 9.81286 10.0152 9.813 10.192C9.7997 10.3571 9.84619 10.5214 9.944 10.655C10.078 10.818 10.251 10.945 10.448 11.021C10.8298 11.1677 11.2227 11.2834 11.623 11.367C11.959 11.441 12.23 11.507 12.46 11.57C12.721 11.635 12.975 11.704 13.204 11.774Z" fill="#6196F6"/>
  <path fill-rule="evenodd" clip-rule="evenodd" d="M8.00132 3.251C7.10611 3.25078 6.22571 3.47947 5.44378 3.91534C4.66185 4.35122 4.00437 4.9798 3.53381 5.74136C3.06324 6.50292 2.79523 7.37216 2.75524 8.26648C2.71525 9.16079 2.90461 10.0505 3.30532 10.851C3.03616 12.2681 3.11745 13.7295 3.54214 15.1081C3.96682 16.4866 4.72201 17.7404 5.74198 18.7603C6.76194 19.7803 8.01576 20.5355 9.39427 20.9602C10.7728 21.3849 12.2342 21.4662 13.6513 21.197C14.6371 21.6906 15.7532 21.8614 16.8414 21.6851C17.9296 21.5088 18.9348 20.9945 19.7143 20.215C20.4938 19.4354 21.0082 18.4303 21.1844 17.3421C21.3607 16.2538 21.1899 15.1377 20.6963 14.152C20.9656 12.7349 20.8845 11.2735 20.4599 9.89493C20.0354 8.51637 19.2803 7.26249 18.2604 6.24242C17.2406 5.22236 15.9868 4.46704 14.6084 4.04223C13.2299 3.61741 11.7685 3.53597 10.3513 3.805C9.62199 3.43927 8.81722 3.2502 8.00132 3.251ZM4.25132 8.501C4.25126 7.84408 4.42377 7.19866 4.75158 6.62937C5.07938 6.06008 5.55099 5.58689 6.11918 5.25718C6.68737 4.92747 7.3322 4.7528 7.98912 4.75066C8.64604 4.74852 9.292 4.91899 9.86232 5.245C10.0246 5.33788 10.2158 5.36677 10.3983 5.326C11.6068 5.05549 12.8641 5.09472 14.0533 5.44005C15.2426 5.78537 16.3254 6.4256 17.201 7.30128C18.0767 8.17696 18.717 9.2597 19.0623 10.449C19.4076 11.6383 19.4468 12.8955 19.1763 14.104C19.1356 14.2865 19.1644 14.4777 19.2573 14.64C19.6666 15.3544 19.8294 16.1837 19.7206 16.9998C19.6118 17.816 19.2374 18.5736 18.6552 19.1558C18.0729 19.738 17.3153 20.1125 16.4992 20.2213C15.683 20.3301 14.8537 20.1673 14.1393 19.758C13.9774 19.665 13.7866 19.6358 13.6043 19.676C12.3958 19.9465 11.1386 19.9073 9.9493 19.562C8.76002 19.2166 7.67728 18.5764 6.8016 17.7007C5.92592 16.825 5.28569 15.7423 4.94037 14.553C4.59504 13.3637 4.55581 12.1065 4.82632 10.898C4.86709 10.7155 4.83821 10.5243 4.74532 10.362C4.42062 9.79559 4.25028 9.15388 4.25132 8.501Z" fill="#6196F6"/>
</svg>