<svg width="27" height="30" viewBox="0 0 27 30" fill="none" xmlns="http://www.w3.org/2000/svg">
<g id="Frame" clip-path="url(#clip0_4300_29834)">
<path id="Vector" d="M13.1538 29.9744C20.5771 30.2805 26.7229 27.4914 26.8869 23.7329L26.93 22.6275C26.766 26.3775 20.603 29.4727 13.1884 29.1666C5.88593 28.8605 0.085417 25.3656 0.0508901 21.6836L-0.000900166 22.619C-0.156271 26.3775 5.73056 29.6683 13.1538 29.9744Z" fill="#C5C6C7"/>
<path id="Vector_2" d="M13.1874 29.1746C20.6021 29.4807 26.7651 26.3854 26.9291 22.6354V22.6269L26.9982 20.9263C26.9809 20.9008 26.955 20.8752 26.9377 20.8497C26.9636 21.0538 26.9723 21.2664 26.9723 21.479C26.9636 21.8701 26.8946 22.2528 26.7824 22.6269C26.6874 22.9501 26.5407 23.2562 26.3767 23.5623C26.2731 23.7409 26.1609 23.9195 26.0401 24.0895C25.9278 24.2511 25.7984 24.4042 25.6689 24.5572C25.5826 24.6593 25.4876 24.7613 25.3927 24.8548C24.3482 25.9263 22.8377 26.8191 21.0078 27.4654C20.3 27.712 19.549 27.9246 18.7549 28.0946C18.0039 28.2562 17.2271 28.3752 16.4243 28.4603C15.7597 28.5283 15.0864 28.5708 14.3872 28.5793C14.0247 28.5878 13.6622 28.5878 13.2996 28.5708C12.7645 28.5538 12.2466 28.5198 11.7287 28.4688C11.6855 28.4603 11.6337 28.4603 11.5906 28.4518C10.6842 28.3582 9.81243 28.2222 8.97515 28.0351C8.75936 27.9841 8.5522 27.9416 8.34504 27.882C8.07746 27.814 7.80987 27.746 7.55092 27.661C6.6187 27.3803 5.74689 27.0487 4.95278 26.6576C4.52119 26.445 4.1155 26.2239 3.72707 25.9858C3.37317 25.7647 3.03654 25.5351 2.72579 25.297C2.57905 25.1865 2.43231 25.0674 2.29421 24.9484C1.54325 24.3021 0.964924 23.5878 0.59376 22.831C0.524706 22.6865 0.455653 22.5419 0.403862 22.3888C0.205333 21.8786 0.101752 21.3599 0.101752 20.8242L0.0585938 21.5045C0.0585938 21.564 0.0585938 21.6235 0.0585938 21.6831C0.0758572 25.382 5.87637 28.8684 13.1874 29.1746Z" fill="#9D9E9E"/>
<path id="Vector_3" d="M25.8933 22.8408C26.2213 22.7558 26.5148 22.6877 26.7824 22.6197C26.8946 22.2456 26.9636 21.8629 26.9723 21.4718C26.9809 21.2592 26.9636 21.0551 26.9377 20.8425C26.6701 18.5381 24.5467 16.4718 21.3789 15.1367C23.0362 18.1214 23.744 19.618 25.8933 22.8408Z" fill="#ECEDEE"/>
<path id="Vector_4" d="M0.396679 22.4055C0.716053 22.329 1.05269 22.2439 1.45838 22.1504C0.949109 21.3681 0.577945 20.8239 0.129096 20.2031C0.111833 20.3562 0.0945692 20.5092 0.0859375 20.6623C0.0859375 20.7218 0.0859375 20.7729 0.0859375 20.8324C0.0945692 21.3681 0.19815 21.8953 0.396679 22.4055Z" fill="#ECEDEE"/>
<path id="Vector_5" d="M6.87745 24.1758C5.78122 24.4649 5.2029 24.618 4.01172 24.9496C4.40878 25.6554 4.6332 26.055 4.95258 26.6673C5.74669 27.0499 6.6185 27.3901 7.55072 27.6707C7.8442 27.5856 8.13768 27.5006 8.51747 27.3816C7.87873 26.4122 7.31766 25.3322 6.87745 24.1758Z" fill="#ECEDEE"/>
<path id="Vector_6" d="M9.92497 25.2718C9.92497 25.2718 9.61423 24.5235 9.39844 23.9453C9.55381 24.379 9.71781 24.8127 9.92497 25.2718Z" fill="#ECEDEE"/>
<path id="Vector_7" d="M8.34766 27.8847C8.55482 27.9357 8.76198 27.9867 8.97777 28.0377C8.90872 27.9442 8.83966 27.8592 8.77924 27.7656C8.61524 27.8081 8.47713 27.8507 8.34766 27.8847Z" fill="#ECEDEE"/>
<path id="Vector_8" d="M2.44922 22.383C3.01891 23.2588 3.2865 23.6925 3.78713 24.5513C5.02147 24.2112 5.60843 24.0581 6.73918 23.769C6.48886 23.0462 6.29033 22.2894 6.16086 21.5156C4.74525 21.8303 4.01156 22.0003 2.44922 22.383Z" fill="#ECEDEE"/>
<path id="Vector_9" d="M9.92578 25.2734C10.0984 25.6476 10.2883 26.0387 10.5041 26.4384C10.2365 25.9197 9.92578 25.2734 9.92578 25.2734Z" fill="#ECEDEE"/>
<path id="Vector_10" d="M10.9017 27.1618L10.8931 27.1448L10.8672 27.0938L10.9017 27.1618Z" fill="#ECEDEE"/>
<path id="Vector_11" d="M2.71875 25.3054C3.02949 25.5435 3.36613 25.7731 3.72003 25.9942C3.56466 25.6966 3.45245 25.4925 3.26255 25.1523C3.04676 25.2119 2.90865 25.2544 2.71875 25.3054Z" fill="#ECEDEE"/>
<path id="Vector_12" d="M1.7245 22.5586C1.28429 22.6691 0.939019 22.7542 0.59375 22.8392C0.973545 23.596 1.55187 24.3018 2.2942 24.9566C2.55315 24.8885 2.74305 24.829 3.04516 24.7525C2.55315 23.8766 2.28557 23.4429 1.7245 22.5586Z" fill="#ECEDEE"/>
<path id="Vector_13" d="M12.9834 26.5742C12.172 26.7868 11.7577 26.9059 10.8945 27.1439L10.9032 27.1524C11.1535 27.5776 11.4297 28.0113 11.7318 28.462C12.2497 28.513 12.7676 28.547 13.3028 28.564C13.6653 28.5725 14.0278 28.5725 14.3904 28.5725H14.399C13.8293 27.7562 13.5445 27.365 12.9834 26.5742Z" fill="#ECEDEE"/>
<path id="Vector_14" d="M8.5259 18.5389L8.5 19.4317L8.62948 20.5201C9.35454 20.3671 9.95013 20.2395 10.5026 20.1205C10.0105 19.2446 9.51854 18.2412 9.05243 17.1953L8.61221 17.697L8.5259 18.5389Z" fill="#ECEDEE"/>
<path id="Vector_15" d="M18.4208 23.198C20.3198 22.4327 18.7402 21.6333 15.5896 19.9922C15.3306 20.3323 15.063 20.6555 14.8041 20.9616C15.0544 21.3017 15.3134 21.6418 15.65 22.0925C15.4342 22.1435 15.322 22.1776 15.0976 22.2286L15.063 22.1776C12.8533 22.6878 11.7485 22.9344 9.25391 23.5636L9.91855 25.2728L10.6868 26.7609C11.5154 26.5313 11.9297 26.4208 12.7152 26.2082L12.7066 26.1997C12.9569 26.1316 13.0778 26.0976 13.3194 26.0296C14.0013 26.9565 14.338 27.4327 15.0372 28.3935C15.4601 28.283 15.6759 28.2235 16.0816 28.1129L16.1593 28.0874C16.2456 28.215 16.3319 28.334 16.4096 28.4446C17.221 28.3595 17.9978 28.2405 18.7402 28.0789C17.2555 27.5177 15.7622 26.9735 14.83 26.4293C12.1369 24.8306 15.9607 24.1929 18.4208 23.198Z" fill="#ECEDEE"/>
<path id="Vector_16" d="M24.2475 23.2394C24.4201 23.1969 24.5064 23.1799 24.679 23.1374C22.1931 19.498 21.3817 17.7377 19.3964 14.4384C19.3274 14.4214 19.2583 14.4044 19.1806 14.3789C19.1116 14.5065 19.0425 14.634 18.9648 14.7616C20.8638 17.8143 21.7702 19.668 24.2475 23.2394Z" fill="#ECEDEE"/>
<path id="Vector_17" d="M8.55406 20.2742C8.53679 20.0787 8.52816 19.8576 8.51953 19.6875C8.52816 19.8746 8.53679 20.0702 8.55406 20.2742Z" fill="#ECEDEE"/>
<path id="Vector_18" d="M8.92578 22.4141C9.0121 22.7712 9.12431 23.1369 9.24515 23.5195C9.24515 23.5195 9.1761 23.2814 9.13294 23.1624C9.05526 22.9073 8.92578 22.4141 8.92578 22.4141Z" fill="#ECEDEE"/>
<path id="Vector_19" d="M24.7891 24.0037C25.0049 24.3013 25.2034 24.5734 25.3933 24.8455C25.4882 24.7435 25.5832 24.65 25.6695 24.5479C25.5228 24.3438 25.376 24.1312 25.212 23.9102C25.048 23.9442 24.9617 23.9697 24.7891 24.0037Z" fill="#ECEDEE"/>
<path id="Vector_20" d="M8.79581 21.8782C8.83033 22.0568 8.87349 22.2269 8.91665 22.4055L9.13244 23.1538C10.3668 22.8561 11.2472 22.6435 12.1018 22.4395C11.6529 21.9633 11.1868 21.2915 10.7207 20.4922C10.1251 20.6197 9.49497 20.7558 8.68359 20.9344L8.79581 21.8782Z" fill="#ECEDEE"/>
<path id="Vector_21" d="M14.457 21.3594C14.2239 21.6145 13.9909 21.8526 13.7578 22.0652C14.0858 21.9886 14.4225 21.9121 14.8023 21.8271C14.6814 21.657 14.5692 21.5039 14.457 21.3594Z" fill="#ECEDEE"/>
<path id="Vector_22" d="M9.06131 17.2014C8.99226 17.0483 8.9232 16.8952 8.85415 16.7422C8.7592 17.0568 8.67288 17.3714 8.62109 17.7116L9.06131 17.2014Z" fill="#ECEDEE"/>
<path id="Vector_23" d="M2.17449 21.9718C3.83178 21.5806 4.6 21.402 6.09329 21.0704C5.79981 18.902 5.97245 16.6061 7.38805 14.3867C4.9798 15.7047 3.66778 16.4275 1.25953 17.7456C0.845209 18.2558 0.534467 18.7915 0.335938 19.3612C1.03511 20.2881 1.48396 20.9258 2.17449 21.9718Z" fill="#89DFA2"/>
<path id="Vector_24" d="M24.2469 23.2396C21.7696 19.6682 20.8632 17.8144 18.9729 14.7617C18.1529 16.1903 17.2207 17.7209 16.2539 19.0814C17.2983 19.5661 18.4291 20.0338 19.439 20.4675C22.745 21.8876 23.0384 23.7498 19.4822 24.8893C16.2453 25.9267 18.9125 26.8536 21.01 27.4573C22.8399 26.811 24.3505 25.9182 25.3949 24.8468C25.205 24.5831 24.9978 24.3025 24.7907 24.0049C24.5662 23.6988 24.4627 23.5457 24.2469 23.2396Z" fill="#89DFA2"/>
<path id="Vector_25" d="M19.4888 24.8899C23.045 23.7504 22.7602 21.8882 19.4456 20.4681C18.4357 20.0344 17.3049 19.5667 16.2605 19.082C16.0361 19.3967 15.8203 19.7028 15.5959 19.9919C18.7464 21.6416 20.3174 22.4324 18.4271 23.1977C15.967 24.1926 12.1432 24.8303 14.8535 26.4375C15.7771 26.9817 17.279 27.5344 18.7637 28.0871C19.5578 27.9171 20.3088 27.7045 21.0166 27.4579C18.9104 26.8541 16.2519 25.9273 19.4888 24.8899Z" fill="#9FBDE4"/>
<path id="Vector_26" d="M8.64062 20.9538C8.64926 20.9963 8.64926 21.0388 8.65789 21.0814C8.69242 21.294 8.72694 21.5065 8.7701 21.7191C8.77873 21.7701 8.78736 21.8297 8.80463 21.8807L8.69242 20.9453L8.64062 20.9538Z" fill="#FDE293"/>
<path id="Vector_27" d="M8.51172 19.4297C8.51172 19.5147 8.52035 19.5998 8.52035 19.6848C8.52898 19.8549 8.54625 20.0674 8.55488 20.2715C8.56351 20.3566 8.57214 20.4416 8.58077 20.5351L8.63256 20.5266L8.51172 19.4297Z" fill="#FDE293"/>
<path id="Vector_28" d="M9.24502 23.5134C9.20187 23.3943 9.17597 23.2753 9.13281 23.1562C9.16734 23.2838 9.24502 23.5134 9.24502 23.5134Z" fill="#FDE293"/>
<path id="Vector_29" d="M9.14157 23.1624L8.92578 22.4141C8.92578 22.4141 9.05526 22.9073 9.14157 23.1624Z" fill="#FDE293"/>
<path id="Vector_30" d="M6.09324 21.0734C6.1105 21.218 6.1364 21.3625 6.16229 21.5071C6.29177 22.2809 6.4903 23.0377 6.74062 23.7605C6.78378 23.8966 6.83557 24.0326 6.88736 24.1687C7.31894 25.3336 7.88864 26.4051 8.52738 27.3744C8.6137 27.502 8.70002 27.6295 8.78634 27.7486C8.85539 27.8421 8.91581 27.9357 8.98486 28.0207C9.82214 28.2078 10.6939 28.3438 11.6003 28.4374C8.92444 24.4323 7.24989 19.7554 8.55328 16.0054C8.29433 15.3931 8.04401 14.7724 7.80232 14.1602C7.69874 14.1857 7.59516 14.2027 7.50021 14.2282C7.46568 14.2792 7.43116 14.3302 7.39663 14.3727C5.9724 16.6091 5.79976 18.9051 6.09324 21.0734Z" fill="#FDE293"/>
<path id="Vector_31" d="M9.39983 23.9452C9.61562 24.5234 9.92636 25.2717 9.92636 25.2717L9.26172 23.5625C9.30488 23.6901 9.35667 23.8176 9.39983 23.9452Z" fill="#FDE293"/>
<path id="Vector_32" d="M10.8945 27.1445L10.9032 27.1615L10.8945 27.1445Z" fill="#FDE293"/>
<path id="Vector_33" d="M10.8678 27.0922L10.8937 27.1432C10.8419 27.0497 10.7901 26.9646 10.7383 26.8711C10.7555 26.8966 10.7642 26.9221 10.7814 26.9476C10.8073 26.9986 10.8332 27.0497 10.8678 27.0922Z" fill="#FDE293"/>
<path id="Vector_34" d="M10.6854 26.7615H10.694L9.92578 25.2734C9.92578 25.2734 10.2365 25.9197 10.5041 26.4384C10.5645 26.5404 10.6163 26.651 10.6854 26.7615Z" fill="#FDE293"/>
<path id="Vector_35" d="M10.8664 27.0937C10.8405 27.0427 10.806 26.9917 10.7801 26.9407C10.7628 26.9152 10.7542 26.8896 10.7369 26.8641C10.7196 26.8301 10.6937 26.7876 10.6765 26.7536C10.6161 26.643 10.5556 26.5325 10.4952 26.422C10.2881 26.0308 10.0895 25.6396 9.91689 25.257C9.70973 24.8063 9.54573 24.3641 9.39036 23.9305C9.3472 23.8029 9.29541 23.6754 9.25225 23.5478L9.23499 23.4968C9.11414 23.1226 9.00193 22.757 8.91561 22.3913C8.87245 22.2128 8.8293 22.0342 8.79477 21.8641C8.78614 21.8131 8.77751 21.7536 8.76024 21.7026C8.71708 21.49 8.68256 21.2689 8.64803 21.0648C8.6394 21.0223 8.6394 20.9798 8.63077 20.9373L8.62214 20.8352C8.60487 20.7247 8.59624 20.6141 8.57898 20.5121H8.58761C8.57898 20.4271 8.57034 20.3335 8.56171 20.2485C8.54445 20.0529 8.53582 19.8573 8.52719 19.6618C8.52719 19.5767 8.51855 19.4917 8.51855 19.4066L8.54445 18.5138L8.6394 17.6805C8.69119 17.3488 8.77751 17.0257 8.87245 16.7111C8.76887 16.473 8.66529 16.2349 8.56171 15.9883C7.25832 19.7468 8.92425 24.4152 11.6087 28.4203C11.6519 28.4288 11.7037 28.4288 11.7468 28.4373C11.4447 27.9866 11.1685 27.5529 10.9182 27.1277L10.8664 27.0937Z" fill="#FDCC00"/>
<path id="Vector_36" d="M26.0436 24.081C26.1644 23.911 26.2766 23.7324 26.3802 23.5538C26.1903 23.2817 26.0867 23.1286 25.8968 22.8395C23.7476 19.6167 23.0398 18.1116 21.3911 15.1354C20.9077 14.9314 20.3984 14.7443 19.8633 14.5742C21.7968 17.9586 23.8339 21.0793 26.0436 24.081Z" fill="#FDE293"/>
<path id="Vector_37" d="M24.6763 23.1365C24.8835 23.4426 24.9957 23.5957 25.2115 23.9103C25.3669 24.1314 25.5222 24.344 25.669 24.548C25.7984 24.395 25.9279 24.2419 26.0401 24.0804C23.8304 21.0787 21.7933 17.9579 19.8598 14.5736C19.7045 14.5225 19.5577 14.48 19.4023 14.4375C21.379 17.7368 22.1904 19.497 24.6763 23.1365Z" fill="#FDCC00"/>
<path id="Vector_38" d="M26.3779 23.5565C26.5505 23.2503 26.6886 22.9442 26.7836 22.6211C26.516 22.6891 26.2225 22.7571 25.8945 22.8422C26.0844 23.1313 26.188 23.2844 26.3779 23.5565Z" fill="white"/>
<path id="Vector_39" d="M7.49382 14.2422C4.74893 14.9565 2.53058 16.198 1.26172 17.7456C3.66997 16.4276 4.98199 15.7048 7.39024 14.3867C7.42476 14.3442 7.45929 14.2932 7.49382 14.2422Z" fill="#ECEDEE"/>
<path id="Vector_40" d="M0.395041 22.4075C0.455463 22.5521 0.515885 22.7051 0.584938 22.8497C0.930207 22.7646 1.27548 22.6796 1.71569 22.5691C2.28539 23.4534 2.54434 23.8871 3.03635 24.7544C2.73424 24.8395 2.54434 24.8905 2.28539 24.9585C2.42349 25.0776 2.57023 25.1966 2.71697 25.3072C2.90687 25.2561 3.04498 25.2136 3.26077 25.1541C3.45067 25.5027 3.56288 25.6983 3.71825 25.9959C4.09805 26.234 4.51237 26.4551 4.94395 26.6677C4.62458 26.0555 4.40879 25.6473 4.0031 24.95C5.20291 24.6184 5.7726 24.4653 6.86883 24.1762C6.81704 24.0402 6.77388 23.9041 6.72209 23.768C5.59133 24.0572 5.00438 24.2102 3.77004 24.5504C3.2694 23.6915 3.00182 23.2578 2.43213 22.382C3.99447 21.9993 4.73679 21.8293 6.14376 21.5061C6.11787 21.3616 6.1006 21.217 6.07471 21.0725C4.59005 21.4041 3.8132 21.5742 2.15591 21.9738C1.45674 20.9279 1.01652 20.2902 0.308724 19.3633C0.213775 19.6354 0.144721 19.916 0.101562 20.2051C0.550412 20.8259 0.921575 21.3701 1.43085 22.1524C1.05105 22.2459 0.714414 22.3225 0.395041 22.4075Z" fill="white"/>
<path id="Vector_41" d="M9.13281 23.1626C9.16734 23.2817 9.20187 23.4007 9.24502 23.5198L9.26229 23.5708C11.7569 22.95 12.8617 22.6949 15.0714 22.1847L15.106 22.2358C15.3218 22.1847 15.434 22.1507 15.6584 22.0997C15.3218 21.649 15.0714 21.3089 14.8125 20.9688C14.6916 21.1048 14.5794 21.2409 14.4586 21.3684C14.5622 21.513 14.6744 21.666 14.8038 21.8361C14.4241 21.9211 14.0788 21.9977 13.7594 22.0742C13.7076 22.1252 13.6472 22.1847 13.5954 22.2358L12.2402 22.5929C12.1971 22.5504 12.1539 22.4994 12.1108 22.4568C11.2562 22.6439 10.3671 22.8565 9.13281 23.1626Z" fill="white"/>
<path id="Vector_42" d="M8.58984 20.5364C8.59848 20.6469 8.60711 20.749 8.62437 20.8595L8.633 20.9615L8.68479 20.953C9.49617 20.7745 10.1263 20.6384 10.7219 20.5109C10.6528 20.3833 10.5751 20.2643 10.5061 20.1367C9.95365 20.2558 9.35807 20.3833 8.633 20.5364H8.58984Z" fill="white"/>
<path id="Vector_43" d="M8.51753 27.3828C8.13774 27.4934 7.84426 27.5784 7.55078 27.6719C7.80973 27.7485 8.07732 27.825 8.3449 27.893C8.47437 27.8505 8.61248 27.8165 8.76785 27.7655C8.69017 27.6379 8.60385 27.5104 8.51753 27.3828Z" fill="white"/>
<path id="Vector_44" d="M16.0988 28.1224C15.6844 28.2329 15.4773 28.284 15.0543 28.403C14.3552 27.4336 14.0185 26.9659 13.3366 26.0391C13.0949 26.1071 12.9741 26.1411 12.7238 26.2091L12.7324 26.2176C11.9469 26.4302 11.5412 26.5408 10.7039 26.7704H10.6953C10.7126 26.8044 10.7385 26.8469 10.7557 26.8809C10.8075 26.9744 10.8507 27.0595 10.9111 27.153C11.7743 26.9064 12.1886 26.7959 13 26.5833C13.561 27.3741 13.8459 27.7653 14.4156 28.5816H14.4069C15.0975 28.5731 15.7794 28.5306 16.444 28.4625C16.3663 28.352 16.28 28.2329 16.1937 28.1054L16.0988 28.1224Z" fill="white"/>
<path id="Vector_45" d="M25.2128 23.9105C24.9971 23.5959 24.8848 23.4428 24.6777 23.1367C24.505 23.1792 24.4187 23.1962 24.2461 23.2388C24.4619 23.5449 24.5655 23.6979 24.7899 24.0041C24.9625 23.9701 25.0488 23.9445 25.2128 23.9105Z" fill="white"/>
<path id="Vector_46" d="M17.4265 3.29082C18.8853 5.20408 19.1009 7.39796 18.7298 9.39626V9.60884C18.6607 9.98299 15.5966 16.5816 12.2389 22.5935L13.594 22.2364C13.6458 22.1854 13.7063 22.1259 13.758 22.0748C13.9911 21.8622 14.2242 21.6242 14.4572 21.369C14.5781 21.2415 14.6903 21.1054 14.8111 20.9694C15.0701 20.6633 15.329 20.3401 15.5966 20C15.821 19.7109 16.0454 19.4048 16.2612 19.0901C17.228 17.7296 18.9887 14.966 18.9887 14.966C18.9887 14.966 19.2649 14.4983 19.334 14.3707C19.9814 13.2313 20.4993 12.1514 20.9309 11.3095C22.2256 8.77551 21.9409 5.7568 20.2577 3.45238C20.2146 3.40136 20.18 3.34184 20.1369 3.29082C18.5659 1.23299 16.2871 0.0765306 14.0947 0L11.5742 0.0170068C13.7063 0.144558 15.9676 1.44558 17.4265 3.29082Z" fill="#D05759"/>
<path id="Vector_47" d="M9.5812 9.10054C10.7465 10.6227 12.6627 11.1754 14.1042 10.5036C13.4223 10.223 12.7922 9.7553 12.2916 9.10054C10.9882 7.39986 11.1263 5.12945 12.6023 4.04102C12.7577 3.92197 12.9303 3.82843 13.0943 3.7519C11.9981 3.30122 10.7983 3.36925 9.89194 4.04102C8.41592 5.12945 8.27781 7.39986 9.5812 9.10054Z" fill="#D05759"/>
<path id="Vector_48" d="M8.54393 16.0209C8.64751 16.259 8.75109 16.5056 8.85467 16.7437C8.92373 16.8967 8.99278 17.0498 9.06184 17.2029C9.52795 18.2488 10.02 19.2522 10.512 20.128C10.581 20.2556 10.6587 20.3831 10.7278 20.5022C11.1939 21.3015 11.66 21.9733 12.1088 22.4495C12.152 22.492 12.1951 22.543 12.2383 22.5855C14.3703 20.5022 17.0462 15.6468 18.2978 12.288C18.2978 12.288 18.8588 10.9275 19.0401 9.47328C19.2214 8.0191 18.8847 5.20457 17.426 3.2828C15.8982 1.2845 13.7057 0.145046 11.5737 0.00899193C11.2543 0.00048853 10.9349 0.000488532 10.6155 0.0259987C10.6069 0.0259987 10.5896 0.0259987 10.581 0.0345021C9.52795 0.12804 8.52667 0.485182 7.65487 1.12294C5.64368 2.61103 4.91861 5.22158 5.5401 7.79811L5.55736 7.84913C5.59189 7.97668 6.51548 10.9018 7.80161 14.1672C8.03466 14.7794 8.28498 15.4001 8.54393 16.0209ZM13.0928 3.75049C13.7748 4.0311 14.4049 4.49879 14.9055 5.15355C16.2089 6.85423 16.0708 9.12464 14.5948 10.2131C14.4394 10.3321 14.2668 10.4257 14.1028 10.5022C12.6613 11.174 10.745 10.6212 9.57974 9.09913C8.27635 7.39845 8.41446 5.12804 9.89048 4.0396C10.7968 3.36784 11.9966 3.30831 13.0928 3.75049Z" fill="#EC6164"/>
</g>
<defs>
<clipPath id="clip0_4300_29834">
<rect width="27" height="30" fill="white"/>
</clipPath>
</defs>
</svg>
