<svg xmlns="http://www.w3.org/2000/svg" width="24" height="25" viewBox="0 0 24 25" fill="none">
  <rect y="0.8125" width="24" height="24" rx="4" fill="url(#paint0_linear_36_38374)"/>
  <path d="M10.5004 15.5589C10.2654 15.5589 10.075 15.3684 10.075 15.1335C10.075 14.591 10.15 14.1163 10.3 13.7095C10.4625 13.2903 10.6688 12.9204 10.9188 12.5998C11.1688 12.2793 11.425 11.9895 11.6875 11.7306C12.05 11.373 12.375 11.0525 12.6625 10.7689C12.95 10.473 13.0938 10.1339 13.0938 9.75173C13.0938 9.49282 13.0313 9.26472 12.9063 9.06745C12.7813 8.85785 12.5938 8.69757 12.3438 8.58661C12.1063 8.46331 11.8063 8.40167 11.4438 8.40167C10.9813 8.40167 10.575 8.54346 10.225 8.82703C9.67934 9.26557 9.02292 9.7918 8.34352 9.62306L8.19469 9.5861C7.51963 9.41844 7.06018 8.74322 7.36775 8.11935C7.47974 7.8922 7.6134 7.67807 7.76875 7.47696C8.18125 6.95913 8.70625 6.55226 9.34375 6.25636C9.99375 5.96045 10.7188 5.8125 11.5188 5.8125C12.4938 5.8125 13.3125 6.00361 13.975 6.38582C14.65 6.7557 15.1562 7.23654 15.4937 7.82835C15.8313 8.40783 16 9.0243 16 9.67776C16 10.1463 15.9062 10.5655 15.7188 10.9354C15.5438 11.2929 15.3188 11.6258 15.0437 11.934C14.7687 12.2299 14.4813 12.5197 14.1813 12.8033C13.7938 13.1608 13.45 13.5369 13.15 13.9314C12.85 14.3259 12.7 14.7883 12.7 15.3184C12.7 15.4512 12.5924 15.5589 12.4596 15.5589H10.5004ZM11.3871 19.8125C10.621 19.8125 10 19.1915 10 18.4254C10 17.6594 10.621 17.0384 11.3871 17.0384H11.4254C12.1915 17.0384 12.8125 17.6594 12.8125 18.4254C12.8125 19.1915 12.1915 19.8125 11.4254 19.8125H11.3871Z" fill="url(#paint1_linear_36_38374)"/>
  <defs>
    <linearGradient id="paint0_linear_36_38374" x1="-21" y1="0.812508" x2="8.49427" y2="-20.8062" gradientUnits="userSpaceOnUse">
      <stop offset="0.0001" stop-color="#CB2128"/>
      <stop offset="0.421875" stop-color="#CB2128"/>
      <stop offset="1" stop-color="#FC4D54"/>
    </linearGradient>
    <linearGradient id="paint1_linear_36_38374" x1="11.5" y1="5.8125" x2="11.5" y2="27.6883" gradientUnits="userSpaceOnUse">
      <stop stop-color="#F2F5FF"/>
      <stop stop-color="#F2F5FF"/>
      <stop offset="1" stop-color="#BE3136"/>
    </linearGradient>
  </defs>
</svg>