<svg xmlns="http://www.w3.org/2000/svg" width="27" height="27" viewBox="0 0 27 27" fill="none">
  <g clip-path="url(#clip0_36_37586)">
    <rect x="4.5" y="1.5" width="21.125" height="21.125" rx="10.5625" fill="white"/>
    <path d="M13.5 0.5C6.33208 0.5 0.5 6.33208 0.5 13.5C0.5 20.6679 6.33208 26.5 13.5 26.5C20.6679 26.5 26.5 20.6679 26.5 13.5C26.5 6.33208 20.6679 0.5 13.5 0.5ZM20.7657 10.0789L12.4574 18.3221C11.9687 18.8108 11.1867 18.8434 10.6654 18.3546L6.26692 14.3471C5.74561 13.8584 5.71303 13.0439 6.16917 12.5226C6.6579 12.0013 7.47243 11.9687 7.99373 12.4574L11.48 15.6504L18.9085 8.22181C19.4298 7.7005 20.2444 7.7005 20.7657 8.22181C21.287 8.74311 21.287 9.55764 20.7657 10.0789Z" fill="#53B699"/>
  </g>
  <defs>
    <clipPath id="clip0_36_37586">
      <rect width="26" height="26" fill="white" transform="translate(0.5 0.5)"/>
    </clipPath>
  </defs>
</svg>