<svg xmlns="http://www.w3.org/2000/svg" width="24" height="25" viewBox="0 0 24 25" fill="none">
  <rect x="0.5" y="0.578125" width="13" height="23" rx="1.5" stroke="white"/>
  <path d="M7.69797 9.0625L8.99359 15.37C9.06813 15.7337 8.95516 16.1102 8.69266 16.3727L8.38047 16.6848C8.23984 16.8255 8.00266 16.7833 7.91875 16.6033L6.14922 12.8017C6.12156 12.7417 6.08313 12.6873 6.03672 12.6409L5.07812 11.6823" stroke="white" stroke-width="1.2" stroke-miterlimit="10" stroke-linecap="round" stroke-linejoin="round"/>
  <path d="M3.44734 10.052L2.48781 9.0925C2.44141 9.04609 2.38703 9.00766 2.32703 8.98L1 8.36219V6.39062L6.06672 7.43125" stroke="white" stroke-width="1.2" stroke-miterlimit="10" stroke-linecap="round" stroke-linejoin="round"/>
  <path d="M2.54266 14.2031L3.1 16.365C3.16656 16.6233 3.09156 16.8975 2.90312 17.0864L2.83234 17.1572C2.72875 17.2608 2.56047 17.2608 2.45687 17.1572L1 15.7003" stroke="white" stroke-width="1.2" stroke-miterlimit="10" stroke-linecap="round" stroke-linejoin="round"/>
  <path d="M1 15.1715L2.33936 14.3478C2.46419 14.271 2.57959 14.1799 2.68323 14.0763L9.71392 7.04559C10.164 6.59549 10.164 5.86579 9.71392 5.4157C9.26383 4.9656 8.53413 4.9656 8.08403 5.4157C8.08403 5.4157 1.01758 12.4839 1 12.503" stroke="white" stroke-width="1.2" stroke-miterlimit="10" stroke-linecap="round" stroke-linejoin="round"/>
  <path d="M5.40625 0.570312C5.53103 1.42142 6.26397 2.07491 7.14972 2.07491C8.03547 2.07491 8.76841 1.42142 8.89319 0.570312H5.40625Z" stroke="white" stroke-width="1.2" stroke-miterlimit="10" stroke-linecap="round" stroke-linejoin="round"/>
  <path d="M19.311 11.0781H22.0324C22.567 11.0781 23 11.5047 23 12.0303V14.2865C23 14.4084 22.9523 14.5255 22.867 14.6139C22.4992 14.9952 22.2733 15.5107 22.2733 16.0779C22.2733 16.6455 22.4992 17.1611 22.867 17.5423C22.9523 17.6307 23 17.7478 23 17.8697V20.126C23 20.6516 22.567 21.0781 22.0324 21.0781H11.9676C11.4332 21.0781 11 20.6518 11 20.126V17.8703C11 17.7484 11.0478 17.6313 11.1331 17.5429C11.5012 17.1615 11.7272 16.6456 11.7272 16.0779C11.7272 15.5104 11.5013 14.9949 11.1333 14.614C11.0478 14.5256 11 14.4083 11 14.2863V12.0303C11 11.5044 11.4332 11.0781 11.9676 11.0781H17.6177" fill="#2B46A8"/>
  <path d="M19.311 11.0781H22.0324C22.567 11.0781 23 11.5047 23 12.0303V14.2865C23 14.4084 22.9523 14.5255 22.867 14.6139C22.4992 14.9952 22.2733 15.5107 22.2733 16.0779C22.2733 16.6455 22.4992 17.1611 22.867 17.5423C22.9523 17.6307 23 17.7478 23 17.8697V20.126C23 20.6516 22.567 21.0781 22.0324 21.0781H11.9676C11.4332 21.0781 11 20.6518 11 20.126V17.8703C11 17.7484 11.0478 17.6313 11.1331 17.5429C11.5012 17.1615 11.7272 16.6456 11.7272 16.0779C11.7272 15.5104 11.5013 14.9949 11.1333 14.614C11.0478 14.5256 11 14.4083 11 14.2863V12.0303C11 11.5044 11.4332 11.0781 11.9676 11.0781H17.6177H19.311Z" stroke="white" stroke-width="1.2" stroke-miterlimit="10" stroke-linecap="round" stroke-linejoin="round"/>
  <path d="M17 16.0781L17.9124 16.8831C18.0292 16.9862 18.0292 17.1701 17.9124 17.2731L17 18.0781" stroke="white" stroke-width="1.2" stroke-miterlimit="10" stroke-linecap="round" stroke-linejoin="round"/>
</svg>