<svg xmlns="http://www.w3.org/2000/svg" width="60" height="43" viewBox="0 0 60 43" fill="none">
  <path d="M14.6457 -3.965e-06C12.021 -4.19446e-06 9.76378 0.462483 7.87402 1.38746C5.98426 2.31243 4.51444 3.64851 3.46457 5.39568C2.30971 6.83453 1.46982 8.73587 0.94488 11.0997C0.314963 13.4635 2.43103e-06 15.8273 2.22438e-06 18.1912C1.77513e-06 23.3299 1.36483 28.1089 4.09449 32.5283C6.71916 36.8448 10.8661 40.2878 16.5354 42.8571L17.9528 40.0822C15.0131 38.8489 12.3885 36.9476 10.0787 34.3782C7.76903 31.8088 6.4042 29.1881 5.98425 26.5159C5.45932 24.2549 5.45932 22.0966 5.98425 20.0411C8.29396 22.5077 11.3386 23.741 15.1181 23.741C18.7927 23.741 21.7848 22.7133 24.0945 20.6578C26.4042 18.4995 27.5591 15.5704 27.5591 11.8705C27.5591 8.27339 26.3517 5.39569 23.937 3.23741C21.4173 1.07913 18.3202 -3.64376e-06 14.6457 -3.965e-06ZM47.0866 -1.12892e-06C44.4619 -1.35838e-06 42.2047 0.462486 40.315 1.38746C38.4252 2.31243 36.9554 3.64851 35.9055 5.39569C34.7507 6.83453 33.9108 8.73587 33.3858 11.0997C32.7559 13.4635 32.4409 15.8273 32.4409 18.1912C32.4409 23.3299 33.8058 28.1089 36.5354 32.5283C39.1601 36.8448 43.3071 40.2878 48.9764 42.8571L50.3937 40.0822C47.4541 38.8489 44.8294 36.9476 42.5197 34.3782C40.21 31.8088 38.8451 29.1881 38.4252 26.5159C37.9003 24.2549 37.9003 22.0966 38.4252 20.0411C40.7349 22.5077 43.7795 23.741 47.5591 23.741C51.2336 23.741 54.2257 22.7133 56.5354 20.6578C58.8451 18.4995 60 15.5704 60 11.8705C60 8.27339 58.7927 5.39569 56.378 3.23741C53.8583 1.07914 50.7612 -8.07685e-07 47.0866 -1.12892e-06Z" fill="white"/>
</svg>