<svg width="21" height="29" viewBox="0 0 21 29" fill="none" xmlns="http://www.w3.org/2000/svg">
<g id="pin school">
<path id="Vector" d="M20.1406 8.70383C20.1406 17.026 11.7039 24 10.3906 24C9.07738 24 0.640625 17.4189 0.640625 8.70383C0.640625 3.9006 5.00104 0 10.3906 0C15.7802 0 20.1406 3.89255 20.1406 8.70383Z" fill="#132B7D"/>
<path id="Vector_2" fill-rule="evenodd" clip-rule="evenodd" d="M14.7249 7.47616C14.8083 7.47579 14.8851 7.52159 14.9244 7.59516L16.4662 10.482C16.5457 10.6308 16.4391 10.8109 16.2704 10.8129L5.7609 10.9375C5.59216 10.9395 5.48135 10.7619 5.55732 10.6112L7.05791 7.63464C7.09598 7.5591 7.17321 7.51131 7.25779 7.51092L9.06773 7.50266C9.12883 7.50238 9.18719 7.47726 9.22939 7.43308L10.5068 6.09588C10.5485 6.05226 10.5709 5.99375 10.569 5.93346L10.4874 3.31167C10.4838 3.19607 10.5684 3.09656 10.6831 3.08157L11.0498 3.03362C11.1855 3.01588 11.3055 3.12245 11.304 3.25934L11.3004 3.56366C11.2989 3.69471 11.4093 3.79931 11.54 3.79079L12.4292 3.73287C12.5589 3.72442 12.6688 3.82738 12.6688 3.9574V4.13765C12.6688 4.24022 12.7381 4.32981 12.8374 4.35549L13.8283 4.61172C14.0292 4.66367 14.0586 4.93677 13.8734 5.03037L12.656 5.64557C12.5166 5.716 12.35 5.62466 12.3343 5.4693C12.322 5.34647 12.212 5.25719 12.0893 5.27039L11.4839 5.33549C11.3696 5.34778 11.2829 5.44425 11.2829 5.5592V5.9647C11.2829 6.02622 11.3081 6.08506 11.3526 6.12752L12.7101 7.4223C12.7522 7.46246 12.8082 7.48475 12.8664 7.48448L14.7249 7.47616ZM11.0858 7.14531C10.9949 7.05558 10.8477 7.0593 10.7616 7.15351L8.46693 9.66245C8.33489 9.80683 8.43731 10.0393 8.63296 10.0393H13.4667C13.6678 10.0393 13.7679 9.79561 13.6249 9.65426L11.0858 7.14531ZM10.9715 9.62868C9.89036 9.62868 9.93847 8.0915 10.9542 8.0915C11.9698 8.0915 11.9605 9.62868 10.9715 9.62868ZM6.20435 11.7919C6.20444 11.6667 6.3067 11.5656 6.43189 11.5671L15.6734 11.6713C15.7978 11.6727 15.8975 11.7749 15.8958 11.8993L15.8513 15.1357C15.8496 15.2628 15.9534 15.3661 16.0806 15.3637L16.3094 15.3594C16.4405 15.3569 16.5459 15.4666 16.5383 15.5974L16.498 16.2881C16.491 16.4071 16.3925 16.5 16.2733 16.5H5.77332C5.64906 16.5 5.54832 16.3993 5.54832 16.275V15.7872C5.54832 15.6647 5.64628 15.5648 5.76873 15.5623L5.98157 15.5579C6.10396 15.5554 6.2019 15.4555 6.20198 15.3331L6.20435 11.7919ZM14.5987 14.4392C14.7195 14.4345 14.8151 14.3353 14.8151 14.2144V13.1695C14.8151 13.0457 14.7151 12.9452 14.5913 12.9445L13.2726 12.9376C13.1455 12.9369 13.0431 13.0415 13.0465 13.1685L13.0757 14.2699C13.079 14.3952 13.184 14.4936 13.3093 14.4888L14.5987 14.4392ZM11.6872 15.4481C11.8073 15.4459 11.9044 15.3497 11.9079 15.2297L11.9684 13.1613C11.9721 13.035 11.8711 12.9304 11.7448 12.9298L10.2612 12.9216C10.1338 12.9209 10.0312 13.0261 10.0351 13.1534L10.0988 15.2552C10.1025 15.3783 10.2046 15.4756 10.3279 15.4733L11.6872 15.4481ZM8.77326 14.4404C8.89352 14.4351 8.98827 14.336 8.98827 14.2156V13.1375C8.98827 13.0137 8.88825 12.9132 8.76444 12.9125L7.67817 12.9069C7.55116 12.9062 7.44878 13.0108 7.45208 13.1377L7.48151 14.2684C7.48478 14.3943 7.59066 14.4929 7.71642 14.4874L8.77326 14.4404Z" fill="white"/>
<g id="Ellipse 2165" filter="url(#filter0_f_810_15322)">
<ellipse cx="10.6406" cy="26.0297" rx="4.99951" ry="0.970093" fill="#132B7D" fill-opacity="0.5"/>
</g>
</g>
<defs>
<filter id="filter0_f_810_15322" x="4.14111" y="23.5596" width="12.999" height="4.94043" filterUnits="userSpaceOnUse" color-interpolation-filters="sRGB">
<feFlood flood-opacity="0" result="BackgroundImageFix"/>
<feBlend mode="normal" in="SourceGraphic" in2="BackgroundImageFix" result="shape"/>
<feGaussianBlur stdDeviation="0.75" result="effect1_foregroundBlur_810_15322"/>
</filter>
</defs>
</svg>
