<svg width="54" height="40" viewBox="0 0 54 40" fill="none" xmlns="http://www.w3.org/2000/svg">
<path opacity="0.5" d="M13.6761 39.28C11.4361 39.28 9.47609 38.86 7.79609 38.02C6.11609 37.0867 4.76276 35.8733 3.73609 34.38C2.80276 32.8867 2.05609 31.1133 1.49609 29.06C0.936094 27.0067 0.656094 24.86 0.656094 22.62C0.656094 18.0467 1.82276 13.7533 4.15609 9.73999C6.58276 5.72666 10.3161 2.55333 15.3561 0.219992L16.6161 2.73999C14.0028 3.95333 11.6694 5.72666 9.61609 8.06C7.65609 10.3 6.48943 12.68 6.11609 15.2C5.55609 17.16 5.50943 19.0733 5.97609 20.94C8.02943 18.7 10.7828 17.58 14.2361 17.58C17.4094 17.58 20.0228 18.56 22.0761 20.52C24.1294 22.3867 25.1561 25 25.1561 28.36C25.1561 31.6267 24.0828 34.2867 21.9361 36.34C19.7894 38.3 17.0361 39.28 13.6761 39.28ZM42.5161 39.28C40.2761 39.28 38.3161 38.86 36.6361 38.02C34.9561 37.0867 33.6028 35.8733 32.5761 34.38C31.6428 32.8867 30.8961 31.1133 30.3361 29.06C29.7761 27.0067 29.4961 24.86 29.4961 22.62C29.4961 18.0467 30.6628 13.7533 32.9961 9.73999C35.4228 5.72666 39.1561 2.55333 44.1961 0.219992L45.4561 2.73999C42.8428 3.95333 40.5094 5.72666 38.4561 8.06C36.4961 10.3 35.3294 12.68 34.9561 15.2C34.3961 17.16 34.3494 19.0733 34.8161 20.94C36.8694 18.7 39.6228 17.58 43.0761 17.58C46.2494 17.58 48.8628 18.56 50.9161 20.52C52.9694 22.3867 53.9961 25 53.9961 28.36C53.9961 31.6267 52.9228 34.2867 50.7761 36.34C48.6294 38.3 45.8761 39.28 42.5161 39.28Z" fill="#C5C5C5"/>
</svg>
