<svg width="14" height="14" viewBox="0 0 14 14" fill="none" xmlns="http://www.w3.org/2000/svg">
<path id="Star 5" d="M6.52447 1.14516C6.67415 0.684509 7.32585 0.684511 7.47553 1.14517L8.68386 4.86401C8.75079 5.07002 8.94277 5.2095 9.15938 5.2095H13.0696C13.554 5.2095 13.7554 5.82931 13.3635 6.11401L10.2001 8.41239C10.0248 8.53971 9.95149 8.76539 10.0184 8.9714L11.2268 12.6902C11.3764 13.1509 10.8492 13.534 10.4573 13.2493L7.29389 10.9509C7.11865 10.8236 6.88135 10.8236 6.70611 10.9509L3.54267 13.2493C3.15081 13.534 2.62357 13.1509 2.77325 12.6903L3.98157 8.9714C4.04851 8.76539 3.97518 8.53971 3.79994 8.41239L0.636495 6.11401C0.244639 5.82931 0.446028 5.2095 0.93039 5.2095H4.84062C5.05723 5.2095 5.24921 5.07002 5.31614 4.86401L6.52447 1.14516Z" fill="url(#paint0_linear_4807_35250)"/>
<defs>
<linearGradient id="paint0_linear_4807_35250" x1="-5.95777" y1="-3.06619" x2="13.9165" y2="-1.39772" gradientUnits="userSpaceOnUse">
<stop stop-color="#FC4D54"/>
<stop offset="0.59375" stop-color="#CB2128"/>
<stop offset="1" stop-color="#CB2128"/>
</linearGradient>
</defs>
</svg>
