<svg width="233" height="69" viewBox="0 0 233 69" fill="none" xmlns="http://www.w3.org/2000/svg">
<path d="M33.9302 34.5731C28.8397 30.6249 23.8445 26.7519 18.8475 22.8773C18.8675 22.8272 18.8876 22.7754 18.9076 22.7253C19.2315 22.7253 19.5571 22.7253 19.881 22.7253C27.0483 22.7219 34.2157 22.7119 41.3831 22.7253C41.939 22.7269 42.1427 22.4313 42.2963 21.9988C43.1144 19.694 43.9341 17.3893 44.7522 15.0845C46.4702 10.2395 48.1865 5.39448 49.9078 0.551138C49.9562 0.414189 50.0413 0.28893 50.1932 0C50.4403 0.612933 50.6373 1.07723 50.816 1.5482C53.0966 7.58567 55.3755 13.6231 57.6511 19.6623C58.1236 20.9165 58.1152 20.9149 57.0167 21.7382C51.7008 25.7181 46.3867 29.7014 41.0725 33.6829C35.0321 38.2089 28.9933 42.7349 22.9513 47.2576C16.3282 52.2162 9.7034 57.1698 3.08198 62.1283C2.09361 62.8682 1.11192 63.6181 0.128555 64.3646C0.0851469 64.3112 0.0417387 64.2594 0 64.206C11.2795 54.3523 22.5606 44.5003 33.9302 34.5731Z" fill="#132B7D"/>
<path d="M82.856 36.6104C82.856 32.3483 82.866 28.0845 82.8443 23.8223C82.8409 23.2344 83.0112 23.0257 83.6156 23.0274C89.3755 23.0424 95.1338 23.0207 100.894 23.0407C103.421 23.0491 104.59 24.2649 104.588 26.7834C104.587 33.3821 104.59 39.9807 104.575 46.5777C104.572 47.9856 104.231 49.2899 102.765 49.8611C102.109 50.1166 101.351 50.2068 100.638 50.2102C94.9702 50.2386 89.3004 50.2252 83.6323 50.2302C83.1448 50.2302 82.8209 50.1718 82.8242 49.5354C82.8459 45.2282 82.8359 40.9193 82.8359 36.6121C82.8426 36.6104 82.8493 36.6104 82.856 36.6104ZM99.1107 36.6338C99.1123 36.6338 99.114 36.6338 99.1173 36.6338C99.1173 34.162 99.1057 31.6903 99.1274 29.2201C99.1324 28.7141 98.9704 28.5621 98.4629 28.5655C95.2891 28.5838 92.1136 28.5772 88.9398 28.5588C88.4974 28.5554 88.3438 28.6941 88.3454 29.14C88.3555 34.1286 88.3538 39.1173 88.3471 44.1042C88.3471 44.5635 88.5107 44.7339 88.9932 44.7305C92.0769 44.7122 95.1605 44.7238 98.2442 44.7272C99.0956 44.7289 99.109 44.7205 99.1107 43.8454C99.1123 41.4404 99.1107 39.0371 99.1107 36.6338Z" fill="#BE3136"/>
<path d="M182.426 37.8673C182.426 41.7687 182.419 45.6701 182.436 49.5715C182.437 50.0358 182.319 50.2362 181.833 50.2295C180.449 50.2111 179.065 50.2111 177.682 50.2295C177.151 50.2362 176.963 50.0141 176.968 49.493C176.99 47.5423 176.964 45.5916 177.001 43.6409C177.011 43.1015 176.853 42.9261 176.313 42.9294C173.183 42.9495 170.053 42.9545 166.922 42.9294C166.334 42.9244 166.181 43.1649 166.184 43.6893C166.201 45.6167 166.183 47.5456 166.213 49.473C166.221 49.9823 166.104 50.2379 165.545 50.2295C164.161 50.2095 162.777 50.2178 161.394 50.2245C160.94 50.2262 160.691 50.1126 160.691 49.5681C160.711 41.9925 160.71 34.4152 160.723 26.8395C160.725 25.8107 160.823 24.807 161.596 23.992C162.353 23.1953 163.333 23.015 164.333 23.01C169.141 22.9849 173.951 22.9933 178.759 23.01C180.053 23.015 181.304 23.2822 181.946 24.5498C182.25 25.1477 182.389 25.8909 182.396 26.5706C182.437 30.3351 182.416 34.1012 182.416 37.8673C182.419 37.8673 182.422 37.8673 182.426 37.8673ZM171.553 28.5013C171.553 28.4963 171.553 28.4913 171.553 28.4879C169.991 28.4879 168.428 28.4929 166.864 28.4846C166.476 28.4829 166.204 28.5364 166.208 29.0257C166.221 31.6528 166.219 34.2816 166.216 36.9087C166.216 37.3011 166.36 37.4815 166.775 37.4815C169.992 37.4748 173.21 37.4765 176.425 37.4882C176.848 37.4899 176.966 37.3195 176.964 36.9187C176.953 34.3367 176.949 31.7547 176.969 29.1727C176.973 28.675 176.814 28.4879 176.31 28.4946C174.726 28.513 173.14 28.5013 171.553 28.5013Z" fill="#BE3136"/>
<path d="M202.266 39.7491C202.266 39.193 202.266 38.6368 202.266 38.079C202.267 33.3158 202.277 28.5527 202.262 23.7895C202.261 23.2367 202.418 23.0162 202.994 23.0262C204.354 23.0513 205.715 23.0346 207.076 23.0145C207.562 23.0079 207.747 23.1665 207.747 23.6876C207.73 32.3054 207.73 40.9249 207.74 49.5427C207.74 50.0404 207.578 50.2374 207.074 50.2308C205.623 50.2124 204.169 50.2525 202.72 50.1974C202.403 50.1857 201.979 49.9435 201.807 49.678C199.406 45.9419 197.04 42.1825 194.668 38.4297C193.771 37.0118 192.876 35.5939 191.986 34.1743C191.905 34.0423 191.849 33.8937 191.783 33.7517C191.691 33.7968 191.599 33.8436 191.507 33.8887C191.492 34.1609 191.464 34.4331 191.464 34.7054C191.464 39.5587 191.465 44.4121 191.474 49.2671C191.476 50.2074 191.47 50.2241 190.542 50.2241C189.25 50.2241 187.956 50.2157 186.664 50.2258C186.193 50.2291 185.984 50.0938 185.984 49.5594C186.003 40.9867 186.006 32.4123 185.988 23.8396C185.986 23.2183 186.14 22.9978 186.776 23.0145C188.135 23.0513 189.499 22.9945 190.858 23.0446C191.158 23.0563 191.567 23.2734 191.726 23.5239C195.032 28.7247 198.309 33.9438 201.595 39.1562C201.743 39.3917 201.924 39.6088 202.089 39.8343C202.146 39.8042 202.206 39.7775 202.266 39.7491Z" fill="#BE3136"/>
<path d="M129.898 35.3377C129.898 38.9434 129.9 42.5492 129.897 46.155C129.897 46.5408 129.9 46.9283 129.851 47.3091C129.634 49.0009 128.875 49.8109 127.2 50.1132C126.734 50.1967 126.254 50.2201 125.779 50.2217C121.2 50.2284 116.619 50.2251 112.039 50.2167C111.632 50.2167 111.223 50.1716 110.82 50.1149C109.428 49.9178 108.518 49.0527 108.261 47.6748C108.199 47.3425 108.177 46.9984 108.177 46.6594C108.172 38.9952 108.177 31.3294 108.164 23.6652C108.162 23.1859 108.311 23.0155 108.778 23.0206C110.184 23.0339 111.59 23.0356 112.996 23.0139C113.527 23.0055 113.64 23.2594 113.637 23.727C113.618 25.5408 113.623 27.3545 113.623 29.1699C113.622 34.0684 113.623 38.9668 113.622 43.8653C113.622 44.7404 113.628 44.7488 114.478 44.7488C117.562 44.7488 120.647 44.7354 123.731 44.7571C124.315 44.7621 124.462 44.5367 124.461 43.9956C124.45 37.3284 124.457 30.6613 124.457 23.9942C124.457 23.0473 124.452 23.0423 125.382 23.0356C126.674 23.0272 127.967 23.0339 129.26 23.0189C129.746 23.0139 129.928 23.1909 129.925 23.7036C129.905 27.5816 129.915 31.4597 129.915 35.336C129.908 35.3377 129.903 35.3377 129.898 35.3377Z" fill="#BE3136"/>
<path d="M211.315 36.5761C211.315 32.314 211.325 28.0502 211.304 23.788C211.3 23.1768 211.519 23.0047 212.103 23.0198C213.417 23.0532 214.734 23.0515 216.05 23.0164C216.623 23.0014 216.79 23.1985 216.786 23.7646C216.763 26.8944 216.786 30.0242 216.763 33.154C216.758 33.7185 216.932 33.9006 217.498 33.8972C220.65 33.8772 223.803 33.8822 226.956 33.9023C227.481 33.9056 227.607 33.6952 227.603 33.2125C227.585 30.0827 227.608 26.9529 227.572 23.8231C227.563 23.1684 227.785 23.0047 228.393 23.0198C229.685 23.0532 230.979 23.0532 232.271 23.0148C232.856 22.9964 232.994 23.2085 232.993 23.763C232.979 32.3374 232.984 40.9101 232.998 49.4844C232.999 50.0339 232.844 50.2544 232.263 50.2393C230.926 50.2043 229.587 50.2226 228.248 50.2276C227.797 50.2293 227.552 50.1291 227.558 49.573C227.597 46.3764 227.588 43.1781 227.61 39.9798C227.613 39.4537 227.365 39.3368 226.894 39.3385C223.742 39.3518 220.588 39.3518 217.434 39.3368C216.932 39.3351 216.761 39.5072 216.765 40.0132C216.783 43.143 216.755 46.2728 216.793 49.4026C216.801 50.0807 216.586 50.261 215.942 50.241C214.628 50.1993 213.31 50.221 211.995 50.2327C211.526 50.2377 211.295 50.1007 211.297 49.5713C211.314 45.2407 211.305 40.9101 211.305 36.5794C211.309 36.5761 211.312 36.5761 211.315 36.5761Z" fill="#BE3136"/>
<path d="M80.9911 23.0198C80.7941 23.0833 80.5587 23.0983 80.4067 23.2202C74.8254 27.6343 69.2558 32.0635 63.6745 36.4759C63.2421 36.8183 63.1102 37.1373 63.2738 37.6918C65.127 44.0132 66.9552 50.3412 68.7934 56.6676C68.9152 57.0885 69.0655 57.501 69.2441 58.0438C68.982 57.9637 68.8702 57.9536 68.7884 57.9002C64.5277 55.1445 60.2687 52.3838 56.0096 49.6231C54.2032 48.4523 52.4068 47.2682 50.582 46.1292C50.3799 46.0039 49.9425 46.0123 49.7505 46.1492C45.5299 49.1655 41.3293 52.2118 37.1221 55.248C33.98 57.5161 30.8346 59.7757 27.6925 62.0421C26.4987 62.9022 25.3117 63.7706 24.1213 64.6341C24.0796 64.5923 24.0378 64.5523 23.9961 64.5105C24.1347 64.3702 24.2632 64.2166 24.4135 64.0896C30.4222 59.0526 36.4392 54.0272 42.4429 48.9834C48.3765 43.9965 54.2934 38.9911 60.2236 33.9991C64.5577 30.3499 68.8969 26.7057 73.2477 23.0766C73.4898 22.8745 73.8521 22.7225 74.161 22.7158C76.2913 22.6724 78.4233 22.6724 80.5537 22.6641C80.6121 22.6641 80.6705 22.7108 80.7306 22.7359C80.8158 22.8294 80.9026 22.9246 80.9911 23.0198Z" fill="#132B7D"/>
<path d="M151.552 23.091C151.065 24.5641 150.611 25.9336 150.157 27.3031C150.093 27.4968 150.013 27.6872 149.975 27.8859C149.884 28.3502 149.606 28.4955 149.15 28.4939C146.043 28.4788 142.937 28.4872 139.83 28.4738C138.957 28.4705 138.936 28.4638 138.934 29.3122C138.922 34.2541 138.917 39.1976 138.895 44.1395C138.892 44.7073 139.206 44.7407 139.638 44.7391C143.335 44.7324 147.029 44.7357 150.726 44.7374C151.592 44.7374 151.586 44.7391 151.579 45.6059C151.571 46.9436 151.559 48.2814 151.581 49.6175C151.587 50.0684 151.41 50.2304 150.985 50.2304C146.315 50.2237 141.644 50.2655 136.974 50.1987C134.535 50.1636 133.478 49.0146 133.469 46.5679C133.449 39.9475 133.458 33.3255 133.466 26.7052C133.468 25.354 133.735 24.0814 135.127 23.4718C135.712 23.2146 136.389 23.0543 137.026 23.0493C141.65 23.0142 146.277 23.0309 150.903 23.0342C151.081 23.0326 151.257 23.0626 151.552 23.091Z" fill="#BE3136"/>
<path d="M13.6523 63.0946C15.0998 61.8654 16.544 60.6328 17.9948 59.4086C22.6362 55.4922 27.2809 51.5791 31.9239 47.6644C36.3932 43.8949 40.8659 40.1288 45.332 36.356C48.7763 33.445 52.2122 30.524 55.6515 27.6079C57.4646 26.0698 59.2727 24.5216 61.0975 22.9968C61.2912 22.8348 61.5867 22.7195 61.8355 22.7162C63.9207 22.6878 66.0076 22.6911 68.0929 22.6895C68.153 22.6895 68.2148 22.7345 68.4619 22.8314C50.1753 36.3477 31.9823 49.7954 13.7892 63.2416C13.7458 63.1915 13.6991 63.143 13.6523 63.0946Z" fill="#BE3136"/>
<path d="M83.1865 62.7055C83.1865 61.1873 83.2132 59.6675 83.1731 58.1494C83.1564 57.5264 83.3901 57.3828 83.9678 57.3912C85.7809 57.4179 87.5957 57.4212 89.4089 57.3795C90.0383 57.3644 90.0917 57.6534 90.1117 58.1611C90.1318 58.7022 89.9197 58.8108 89.4339 58.7991C88.0966 58.769 86.7576 58.7991 85.422 58.7673C84.8677 58.754 84.6323 58.936 84.6673 59.5105C84.7041 60.0984 84.6957 60.6896 84.6707 61.2775C84.6506 61.7786 84.856 61.9639 85.3535 61.9522C86.5773 61.9255 87.8027 61.9623 89.0249 61.9122C89.6409 61.8871 89.7327 62.1677 89.7494 62.6821C89.7678 63.2132 89.5524 63.3351 89.0666 63.3251C87.8194 63.2967 86.5723 63.3301 85.3251 63.3034C84.8243 63.2933 84.6339 63.4604 84.659 63.9714C84.6924 64.6729 84.6757 65.376 84.654 66.0791C84.639 66.5517 84.8426 66.7221 85.3034 66.7154C86.7543 66.697 88.2068 66.7238 89.6559 66.687C90.2286 66.672 90.4006 66.8808 90.4106 67.4336C90.4189 68.0265 90.1318 68.0866 89.6476 68.0832C87.7209 68.0649 85.7926 68.0682 83.866 68.0866C83.4085 68.0899 83.1364 68.0164 83.1447 67.4653C83.1681 65.8787 83.1531 64.2921 83.1531 62.7055C83.1681 62.7055 83.1764 62.7055 83.1865 62.7055Z" fill="#132B7D"/>
<path d="M105.349 61.7639C105.349 60.2758 105.349 58.8763 105.349 57.4767C105.349 56.6968 105.446 56.6216 106.207 56.6634C106.598 56.6851 106.705 56.8621 106.705 57.2229C106.701 60.6483 106.708 64.072 106.716 67.4974C106.716 67.8264 106.673 68.0786 106.259 68.097C105.725 68.1204 105.219 68.1371 105.347 67.1717C104.137 68.2222 102.863 68.5696 101.538 68.0168C100.886 67.7446 100.235 67.2269 99.8362 66.6473C98.8011 65.1459 99.0349 63.0282 100.222 61.8073C101.521 60.4712 103.129 60.4395 105.349 61.7639ZM100.651 64.4327C100.644 65.9125 101.616 66.9797 102.973 66.983C104.359 66.9864 105.369 65.9425 105.379 64.4945C105.387 63.1067 104.381 62.0545 103.03 62.0428C101.628 62.0328 100.658 63.0065 100.651 64.4327Z" fill="#132B7D"/>
<path d="M137.207 68.3355C134.87 68.2587 133.165 67.1448 132.267 65.0154C131.36 62.8659 131.636 60.7499 133.174 58.9595C134.706 57.1758 136.741 56.8117 138.939 57.413C139.57 57.585 140.139 58.0142 140.707 58.3716C141.092 58.6138 141.024 58.866 140.673 59.1683C140.174 59.5992 139.822 59.6777 139.246 59.2C138.074 58.2263 136.481 58.2414 135.142 59.18C133.751 60.1536 133.239 61.5883 133.379 63.2183C133.529 64.9653 134.401 66.2713 136.147 66.794C137.438 67.1798 138.658 67.0162 139.665 65.9991C140.069 65.5899 141.039 65.8521 141.156 66.4199C141.189 66.5803 141.022 66.8358 140.875 66.9711C139.843 67.923 138.611 68.3556 137.207 68.3355Z" fill="#132B7D"/>
<path d="M202.266 64.982C201.541 64.982 200.817 64.9804 200.092 64.982C199.394 64.9837 199.294 65.1574 199.62 65.792C200.299 67.1198 202.075 67.4488 203.264 66.4668C203.53 66.2463 203.727 65.9156 204.174 66.2496C204.847 66.7524 204.85 66.9077 204.169 67.4321C203.161 68.2104 202.019 68.364 200.822 68.172C198.7 67.8312 197.439 65.4797 198.162 63.2819C198.965 60.8435 202.116 59.8865 203.945 61.5349C204.832 62.3332 205.116 63.3821 205.137 64.5328C205.146 64.9403 204.92 65.0204 204.575 65.0154C203.805 65.0037 203.035 65.0121 202.266 65.0121C202.266 65.0054 202.266 64.9937 202.266 64.982ZM201.561 63.9065C202.037 63.9065 202.511 63.9065 202.987 63.9065C203.66 63.9065 203.79 63.7161 203.546 63.0948C203.197 62.2013 202.503 61.7921 201.439 61.8506C200.6 61.8973 199.665 62.6322 199.464 63.3871C199.369 63.7495 199.514 63.9031 199.863 63.9065C200.429 63.9098 200.995 63.9065 201.561 63.9065Z" fill="#132B7D"/>
<path d="M153.627 68.2412C151.468 68.2195 149.829 66.5644 149.864 64.4417C149.899 62.3557 151.592 60.7207 153.682 60.7524C155.836 60.7841 157.47 62.4426 157.447 64.567C157.422 66.6462 155.742 68.2613 153.627 68.2412ZM153.64 62.0451C152.268 62.0451 151.296 63.0906 151.301 64.5603C151.308 65.9782 152.33 66.9769 153.766 66.9669C155.026 66.9586 156.019 65.8529 156.006 64.4734C155.993 63.0705 154.994 62.0451 153.64 62.0451Z" fill="#132B7D"/>
<path d="M168.066 61.5913C168.672 61.3157 169.189 60.975 169.757 60.8398C171.57 60.4105 172.924 61.4928 172.951 63.3433C172.971 64.7245 172.946 66.1073 172.976 67.4885C172.988 67.9862 172.787 68.1181 172.332 68.0964C171.916 68.0764 171.569 68.0814 171.585 67.4985C171.617 66.3445 171.617 65.1887 171.604 64.033C171.589 62.7437 171.053 62.0807 170.044 62.0556C168.896 62.0272 168.108 62.7537 168.053 63.9963C168.002 65.127 168.007 66.2626 168.058 67.3933C168.084 68.0163 167.805 68.0998 167.288 68.1014C166.75 68.1014 166.593 67.911 166.603 67.3733C166.637 65.5395 166.61 63.704 166.625 61.8702C166.628 61.5078 166.401 60.9617 167.059 60.9283C167.543 60.9049 168.226 60.6894 168.066 61.5913Z" fill="#132B7D"/>
<path d="M121.15 67.2578C120.352 68.0427 119.523 68.3049 118.568 68.2415C117.405 68.163 116.457 67.4582 116.365 66.3125C116.231 64.6674 116.265 63.009 116.246 61.3556C116.241 60.8328 116.655 60.9247 116.989 60.913C117.393 60.898 117.629 61.0182 117.622 61.4858C117.605 62.7785 117.59 64.0712 117.63 65.3622C117.655 66.1922 118.143 66.7751 118.807 66.9221C119.659 67.1108 120.539 66.7617 120.877 66.0002C121.064 65.5793 121.151 65.0883 121.173 64.624C121.216 63.6971 121.191 62.7652 121.178 61.8366C121.17 61.3405 121.101 60.8996 121.861 60.8946C122.587 60.8879 122.587 61.2587 122.582 61.7948C122.56 63.6086 122.577 65.4223 122.572 67.2361C122.57 67.5918 122.752 68.0845 122.121 68.0878C121.647 68.0878 120.993 68.2849 121.15 67.2578Z" fill="#132B7D"/>
<path d="M183.845 61.8411C184.171 61.5789 184.319 61.4587 184.47 61.3401C185.384 60.6186 186.406 60.6203 187.43 60.9944C188.338 61.3267 188.75 62.115 188.795 63.0152C188.87 64.5517 188.847 66.0949 188.854 67.6348C188.855 68.1575 188.463 68.0824 188.122 68.0874C187.71 68.0924 187.426 68.0172 187.438 67.4928C187.465 66.2252 187.473 64.9559 187.443 63.6866C187.425 62.8465 186.957 62.237 186.318 62.085C185.458 61.8812 184.673 62.1451 184.279 62.915C184.042 63.381 183.92 63.9405 183.889 64.4682C183.832 65.4152 183.865 66.3705 183.894 67.3208C183.907 67.7801 183.904 68.1074 183.281 68.0991C182.713 68.0924 182.491 67.9671 182.508 67.3325C182.555 65.5204 182.506 63.7083 182.521 61.8946C182.525 61.5389 182.262 60.991 182.924 60.9309C183.423 60.8858 184.072 60.7439 183.845 61.8411Z" fill="#132B7D"/>
<path d="M217.75 68.2375C215.885 68.2141 214.703 67.4242 214.117 65.9077C213.579 64.5198 214.013 62.6593 215.109 61.6422C216.301 60.5366 218.832 60.4748 220.029 61.5504C220.146 61.6556 220.187 62.0648 220.102 62.1332C219.798 62.3771 219.651 62.9817 219.012 62.5959C218.57 62.3286 218.035 62.1232 217.526 62.0798C216.586 61.9996 215.821 62.6543 215.493 63.6547C215.147 64.7086 215.464 65.8609 216.271 66.4872C217.054 67.0935 218.064 67.1352 218.865 66.5925C219.386 66.2401 219.962 66.3904 220.176 66.9849C220.224 67.1185 220.079 67.4008 219.94 67.511C219.259 68.0505 218.469 68.2893 217.75 68.2375Z" fill="#132B7D"/>
<path d="M229.528 64.4954C229.528 63.9509 229.485 63.4031 229.54 62.8653C229.604 62.2474 229.366 62.062 228.775 62.0804C228.512 62.0887 228.108 61.9685 228.001 61.7764C227.75 61.3288 228.044 60.9564 228.575 60.9263C229.505 60.8729 229.505 60.8729 229.505 59.8758C229.505 58.9656 229.635 58.8136 230.443 58.9573C230.627 58.9907 230.887 59.2662 230.902 59.4499C231.024 60.8361 231.008 60.8512 232.312 60.913C232.731 60.933 232.861 61.1184 232.871 61.5008C232.881 61.8816 232.771 62.1221 232.343 62.1054C232.32 62.1038 232.298 62.1054 232.275 62.1071C230.906 62.1739 230.904 62.1739 230.904 63.5467C230.904 64.2949 230.887 65.0432 230.912 65.7897C230.944 66.6999 231.368 67.0256 232.275 66.9454C232.487 66.927 232.886 67.0389 232.903 67.1375C232.964 67.5216 233.041 68.0878 232.504 68.1329C231.802 68.1913 231.053 68.1596 230.387 67.9575C230.058 67.8573 229.794 67.3195 229.642 66.9237C229.502 66.5596 229.54 66.122 229.523 65.7162C229.507 65.3087 229.52 64.9012 229.52 64.4937C229.523 64.4954 229.525 64.4954 229.528 64.4954Z" fill="#132B7D"/>
</svg>
