<svg xmlns="http://www.w3.org/2000/svg" width="44" height="44" viewBox="0 0 44 44" fill="none">
  <g clip-path="url(#clip0_164_35216)">
    <path d="M42.702 37.5506C42.702 38.2725 42.135 38.8395 41.4131 38.8395H27.9569C27.235 38.8395 26.668 38.2725 26.668 37.5506C26.668 36.8287 27.235 36.2617 27.9569 36.2617H41.413C42.1349 36.2617 42.702 36.8287 42.702 37.5506Z" fill="url(#paint0_linear_164_35216)"/>
    <path d="M17.323 37.5506C17.323 38.2725 16.756 38.8395 16.0341 38.8395H2.57795C1.85608 38.8395 1.28906 38.2725 1.28906 37.5506C1.28906 36.8287 1.85608 36.2617 2.57795 36.2617H16.0341C16.756 36.2617 17.323 36.8287 17.323 37.5506Z" fill="url(#paint1_linear_164_35216)"/>
    <path d="M27.2366 0H16.7535C14.6138 0 12.8867 1.81302 12.8867 3.95269V6.6164C12.8867 8.75607 14.6138 10.4832 16.7535 10.4832H21.4536L21.995 11.0246L26.3345 15.2521C26.6953 15.6388 27.2625 15.7418 27.7264 15.5358C28.2161 15.3294 28.5255 14.8655 28.5255 14.3499V10.251C30.0207 9.73558 31.1034 8.29209 31.1034 6.6164V3.95269C31.1034 1.81311 29.3763 0 27.2366 0Z" fill="url(#paint2_linear_164_35216)"/>
    <path d="M42.7015 43.9945C42.1238 43.9945 41.5989 43.6043 41.453 43.0177L38.8751 32.7064C38.7014 32.0167 39.1218 31.3168 39.8128 31.1443C40.5026 30.9656 41.2024 31.3911 41.3749 32.0821L43.9528 42.3934C44.1265 43.0831 43.7061 43.783 43.015 43.9555C42.9126 43.9814 42.8073 43.9945 42.7015 43.9945Z" fill="url(#paint3_linear_164_35216)"/>
    <path d="M1.29035 43.995C1.18466 43.995 1.07939 43.9819 0.976934 43.956C0.285911 43.7835 -0.13458 43.0837 0.0391852 42.3939L2.61705 32.0826C2.78952 31.3903 3.48553 30.9648 4.17913 31.1449C4.87015 31.3173 5.29064 32.0171 5.11688 32.7069L2.5391 43.0183C2.39301 43.6048 1.8681 43.995 1.29035 43.995Z" fill="url(#paint4_linear_164_35216)"/>
    <path d="M11.5988 10.4839C11.5988 12.6236 9.87173 14.3507 7.73207 14.3507C5.5924 14.3507 3.86532 12.6236 3.86532 10.4839C3.86532 8.34427 5.5924 6.61719 7.73207 6.61719C9.87173 6.61719 11.5988 8.34427 11.5988 10.4839ZM18.662 43.9182C17.4248 44.2277 15.9295 43.5574 15.5429 42.0364L12.1657 32.3954H2.57643C0.900737 32.3954 -0.336503 30.8229 0.0759961 29.1989L2.65386 17.5986C2.93745 16.4901 3.96836 15.6653 5.12851 15.6653C6.13389 15.6653 7.03606 16.2065 7.44865 17.0572L7.73224 17.8049L8.37668 19.5062H15.4657C16.8835 19.5062 18.0436 20.6661 18.0436 22.084C18.0436 23.5019 16.8836 24.6619 15.4657 24.6619H11.5989C10.877 24.6619 10.31 25.2289 10.31 25.9508C10.31 26.6726 10.877 27.2397 11.5989 27.2397H14.1768C15.3626 27.2397 16.3937 28.0388 16.6772 29.1988L20.5439 40.799C20.8789 42.1653 20.0542 43.5833 18.662 43.9182Z" fill="url(#paint5_linear_164_35216)"/>
    <path d="M40.1281 10.4839C40.1281 12.6236 38.401 14.3507 36.2613 14.3507C34.1216 14.3507 32.3946 12.6236 32.3946 10.4839C32.3946 8.34427 34.1216 6.61719 36.2613 6.61719C38.401 6.61719 40.1281 8.34427 40.1281 10.4839ZM41.417 32.3955H31.8276L28.4504 42.0365C28.0638 43.5575 26.5686 44.2277 25.3313 43.9183C23.9392 43.5833 23.1144 42.1653 23.4495 40.7992L27.3163 29.1989C27.5999 28.039 28.6308 27.2398 29.8167 27.2398H32.3946C33.1164 27.2398 33.6835 26.6728 33.6835 25.9509C33.6835 25.2291 33.1164 24.6621 32.3946 24.6621H28.5278C27.11 24.6621 25.95 23.5021 25.95 22.0842C25.95 20.6663 27.1099 19.5063 28.5278 19.5063H35.6169L36.2613 17.805L36.5449 17.0574C36.9574 16.2066 37.8596 15.6654 38.865 15.6654C40.025 15.6654 41.0561 16.4904 41.3397 17.5988L43.9176 29.199C44.33 30.8231 43.0926 32.3955 41.417 32.3955Z" fill="url(#paint6_linear_164_35216)"/>
  </g>
  <defs>
    <linearGradient id="paint0_linear_164_35216" x1="28.5119" y1="35.9948" x2="39.0712" y2="41.4126" gradientUnits="userSpaceOnUse">
      <stop stop-color="#2E6BC6"/>
      <stop offset="0.332454" stop-color="#2E6BC6"/>
      <stop offset="1" stop-color="#29A4EA"/>
    </linearGradient>
    <linearGradient id="paint1_linear_164_35216" x1="1.28906" y1="35.819" x2="14.5003" y2="41.0851" gradientUnits="userSpaceOnUse">
      <stop offset="0.0001" stop-color="#CB2128"/>
      <stop offset="0.421875" stop-color="#CB2128"/>
      <stop offset="1" stop-color="#FC4D54"/>
    </linearGradient>
    <linearGradient id="paint2_linear_164_35216" x1="14.9817" y1="-1.61927" x2="29.9978" y2="-0.17653" gradientUnits="userSpaceOnUse">
      <stop stop-color="#2E6BC6"/>
      <stop offset="0.332454" stop-color="#2E6BC6"/>
      <stop offset="1" stop-color="#29A4EA"/>
    </linearGradient>
    <linearGradient id="paint3_linear_164_35216" x1="39.4289" y1="29.7688" x2="43.7136" y2="29.9102" gradientUnits="userSpaceOnUse">
      <stop stop-color="#2E6BC6"/>
      <stop offset="0.332454" stop-color="#2E6BC6"/>
      <stop offset="1" stop-color="#29A4EA"/>
    </linearGradient>
    <linearGradient id="paint4_linear_164_35216" x1="8.9523e-09" y1="28.8895" x2="4.92013" y2="29.0156" gradientUnits="userSpaceOnUse">
      <stop offset="0.0001" stop-color="#CB2128"/>
      <stop offset="0.421875" stop-color="#CB2128"/>
      <stop offset="1" stop-color="#FC4D54"/>
    </linearGradient>
    <linearGradient id="paint5_linear_164_35216" x1="-0.00390621" y1="0.198263" x2="19.6631" y2="0.893681" gradientUnits="userSpaceOnUse">
      <stop offset="0.0001" stop-color="#CB2128"/>
      <stop offset="0.421875" stop-color="#CB2128"/>
      <stop offset="1" stop-color="#FC4D54"/>
    </linearGradient>
    <linearGradient id="paint6_linear_164_35216" x1="25.7466" y1="2.74755" x2="42.8674" y2="3.52679" gradientUnits="userSpaceOnUse">
      <stop stop-color="#2E6BC6"/>
      <stop offset="0.332454" stop-color="#2E6BC6"/>
      <stop offset="1" stop-color="#29A4EA"/>
    </linearGradient>
    <clipPath id="clip0_164_35216">
      <rect width="44" height="44" fill="white"/>
    </clipPath>
  </defs>
</svg>