<svg xmlns="http://www.w3.org/2000/svg" width="49" height="48" viewBox="0 0 49 48" fill="none">
  <g clip-path="url(#clip0_164_35496)">
    <path fill-rule="evenodd" clip-rule="evenodd" d="M28.5567 38.9266C28.0244 39.2039 27.8306 39.869 28.1307 40.3888L31.5641 46.3364C31.9328 46.9752 32.8266 47.0476 33.2935 46.4766L34.6665 44.7972C34.9037 44.507 35.277 44.3646 35.6472 44.4231L37.7807 44.76C38.6571 44.8983 39.3021 43.9585 38.8578 43.1906L35.0821 36.6637C34.7996 36.1754 34.1828 35.9959 33.6824 36.2566L28.5567 38.9266ZM20.43 38.926C20.9615 39.2038 21.1546 39.8683 20.8548 40.3876L17.4207 46.3364C17.052 46.9752 16.1582 47.0476 15.6913 46.4766L14.3183 44.7972C14.0811 44.507 13.7077 44.3646 13.3376 44.4231L11.2026 44.7602C10.3265 44.8985 9.68149 43.9592 10.1252 43.1913L13.9022 36.6543C14.1848 36.1652 14.8027 35.9857 15.3034 36.2473L20.43 38.926Z" fill="url(#paint0_linear_164_35496)"/>
    <path fill-rule="evenodd" clip-rule="evenodd" d="M24.5012 14.3926C31.9704 14.3926 38.0224 20.4447 38.0224 27.9141C38.0224 35.3836 31.9704 41.4469 24.5012 41.4469C17.0319 41.4469 10.9688 35.3948 10.9688 27.9254C10.9688 20.4559 17.0319 14.3926 24.5012 14.3926Z" fill="url(#paint1_linear_164_35496)"/>
    <path fill-rule="evenodd" clip-rule="evenodd" d="M24.4955 19.959C28.8938 19.959 32.4597 23.525 32.4597 27.9234C32.4597 32.3219 28.8938 35.8879 24.4955 35.8879C20.0972 35.8879 16.5312 32.3219 16.5312 27.9234C16.5312 23.525 20.0972 19.959 24.4955 19.959Z" fill="url(#paint2_linear_164_35496)"/>
    <path d="M24.5009 19.0605C26.9531 19.0605 29.1691 20.0505 30.7665 21.6591C32.3751 23.2678 33.365 25.4838 33.365 27.9249C33.365 30.366 32.3751 32.5821 30.7665 34.1907C29.1579 35.7994 26.9419 36.7893 24.5009 36.7893C22.0598 36.7893 19.8438 35.7994 18.2352 34.1907C16.6266 32.5821 15.6367 30.366 15.6367 27.9249C15.6367 25.4726 16.6266 23.2565 18.2352 21.6591C19.8326 20.0505 22.0486 19.0605 24.5009 19.0605ZM29.4954 22.9303C28.2242 21.6591 26.4582 20.8604 24.5009 20.8604C22.5548 20.8604 20.7775 21.6479 19.5063 22.9303C18.224 24.2127 17.4365 25.9788 17.4365 27.9249C17.4365 29.871 18.224 31.6372 19.5063 32.9196C20.7775 34.202 22.5435 34.9894 24.5009 34.9894C26.4469 34.9894 28.2242 34.202 29.4954 32.9196C30.7777 31.6372 31.5652 29.8823 31.5652 27.9249C31.5652 25.9676 30.7665 24.2014 29.4954 22.9303Z" fill="white"/>
    <path fill-rule="evenodd" clip-rule="evenodd" d="M4.68835 9.93732C5.05239 9.18307 6.12684 9.18368 6.49002 9.93834L7.21306 11.4407C7.35864 11.7432 7.64629 11.9525 7.97891 11.9979L9.62674 12.2228C10.4562 12.336 10.7877 13.3574 10.1829 13.9361L8.9786 15.0885C8.73647 15.3201 8.62649 15.6577 8.68567 15.9876L8.98131 17.6354C9.12902 18.4587 8.26093 19.0887 7.524 18.693L6.05215 17.9028C5.75675 17.7442 5.40151 17.7442 5.1061 17.9028L3.63426 18.693C2.89733 19.0887 2.02924 18.4587 2.17695 17.6354L2.47321 15.9841C2.53205 15.6562 2.42369 15.3204 2.18423 15.0888L0.979377 13.9232C0.379542 13.3429 0.712522 12.3265 1.53944 12.2137L3.20229 11.9867C3.53452 11.9414 3.82191 11.7325 3.96765 11.4305L4.68835 9.93732ZM23.6028 1.86467C23.9675 1.11136 25.041 1.11262 25.404 1.86677L26.1284 3.37206C26.274 3.67456 26.5616 3.88383 26.8942 3.92922L28.5421 4.15413C29.3715 4.26734 29.703 5.28871 29.0982 5.86746L27.8939 7.01977C27.6518 7.25146 27.5418 7.58903 27.601 7.91888L27.896 9.5635C28.0439 10.3873 27.1746 11.0174 26.4377 10.6206L24.979 9.83509C24.6834 9.67592 24.3276 9.6757 24.0318 9.83451L22.5607 10.6243C21.8238 11.02 20.9557 10.39 21.1034 9.5667L21.399 7.91888C21.4582 7.58903 21.3482 7.25146 21.1061 7.01977L19.9018 5.86746C19.297 5.28871 19.6285 4.26734 20.4579 4.15413L22.1073 3.92902C22.4391 3.88373 22.7262 3.67537 22.8721 3.37396L23.6028 1.86467ZM42.5054 9.9257C42.8713 9.17423 43.943 9.17673 44.3055 9.92991L45.0326 11.4407C45.1782 11.7432 45.4658 11.9525 45.7984 11.9979L47.4463 12.2228C48.2757 12.336 48.6072 13.3574 48.0024 13.9361L46.7981 15.0885C46.556 15.3201 46.446 15.6577 46.5052 15.9876L46.8008 17.6354C46.9485 18.4587 46.0804 19.0887 45.3435 18.693L43.8717 17.9028C43.5763 17.7442 43.221 17.7442 42.9256 17.9028L41.4538 18.693C40.7169 19.0887 39.8488 18.4587 39.9965 17.6354L40.2921 15.9876C40.3513 15.6577 40.2413 15.3201 39.9992 15.0885L38.7949 13.9361C38.1901 13.3574 38.5216 12.336 39.351 12.2228L41.0018 11.9975C41.3328 11.9523 41.6194 11.7449 41.7657 11.4445L42.5054 9.9257Z" fill="url(#paint3_linear_164_35496)"/>
    <path d="M20.4017 28.5464C20.1542 28.1189 20.3004 27.5677 20.7279 27.3202C21.1553 27.0728 21.7065 27.219 21.954 27.6465L23.1352 29.6938L27.331 25.4979C27.6797 25.1491 28.2534 25.1491 28.6021 25.4979C28.9508 25.8466 28.9508 26.4203 28.6021 26.769L23.5739 31.7974C23.5176 31.8537 23.4614 31.8987 23.3939 31.9437C22.9664 32.1912 22.4152 32.0449 22.1677 31.6174L20.4017 28.5464Z" fill="white"/>
  </g>
  <defs>
    <linearGradient id="paint0_linear_164_35496" x1="9.01953" y1="33.7391" x2="37.7674" y2="38.5383" gradientUnits="userSpaceOnUse">
      <stop offset="0.0001" stop-color="#CB2128"/>
      <stop offset="0.421875" stop-color="#CB2128"/>
      <stop offset="1" stop-color="#FC4D54"/>
    </linearGradient>
    <linearGradient id="paint1_linear_164_35496" x1="14.08" y1="11.5915" x2="36.4343" y2="13.4354" gradientUnits="userSpaceOnUse">
      <stop stop-color="#2E6BC6"/>
      <stop offset="0.332454" stop-color="#2E6BC6"/>
      <stop offset="1" stop-color="#29A4EA"/>
    </linearGradient>
    <linearGradient id="paint2_linear_164_35496" x1="16.5313" y1="17.2233" x2="31.6786" y2="18.194" gradientUnits="userSpaceOnUse">
      <stop offset="0.0001" stop-color="#CB2128"/>
      <stop offset="0.421875" stop-color="#CB2128"/>
      <stop offset="1" stop-color="#FC4D54"/>
    </linearGradient>
    <linearGradient id="paint3_linear_164_35496" x1="-0.5" y1="-3.37848" x2="46.0095" y2="4.1972" gradientUnits="userSpaceOnUse">
      <stop offset="0.0001" stop-color="#CB2128"/>
      <stop offset="0.421875" stop-color="#CB2128"/>
      <stop offset="1" stop-color="#FC4D54"/>
    </linearGradient>
    <clipPath id="clip0_164_35496">
      <rect width="48" height="48" fill="white" transform="translate(0.5)"/>
    </clipPath>
  </defs>
</svg>