<svg xmlns="http://www.w3.org/2000/svg" width="165" height="49" viewBox="0 0 165 49" fill="none">
  <path d="M24.0278 24.7906C20.423 21.9596 16.8856 19.1824 13.3469 16.4041C13.3611 16.3682 13.3753 16.3311 13.3895 16.2951C13.6189 16.2951 13.8494 16.2951 14.0788 16.2951C19.1544 16.2927 24.23 16.2855 29.3056 16.2951C29.6993 16.2963 29.8435 16.0844 29.9523 15.7742C30.5316 14.1216 31.1121 12.4689 31.6915 10.8163C32.908 7.34221 34.1234 3.8681 35.3424 0.395193C35.3767 0.296993 35.437 0.207177 35.5446 0C35.7195 0.439503 35.8591 0.772423 35.9856 1.11013C37.6006 5.43929 39.2144 9.76845 40.8259 14.0988C41.1605 14.9982 41.1546 14.997 40.3766 15.5874C36.6122 18.4411 32.8489 21.2973 29.0857 24.1523C24.8081 27.3976 20.5318 30.643 16.253 33.886C11.5629 37.4415 6.87151 40.9935 2.18252 44.549C1.4826 45.0795 0.78741 45.6172 0.0910368 46.1526C0.0602971 46.1142 0.0295574 46.0771 0 46.0388C7.9876 38.9732 15.9764 31.9088 24.0278 24.7906Z" fill="white"/>
  <path d="M58.6748 26.2509C58.6748 23.1948 58.6819 20.1374 58.6665 17.0813C58.6642 16.6597 58.7848 16.51 59.2128 16.5112C63.2917 16.522 67.3694 16.5064 71.4484 16.5208C73.2384 16.5268 74.066 17.3986 74.0648 19.2045C74.0636 23.9361 74.066 28.6676 74.0553 33.398C74.053 34.4075 73.8118 35.3428 72.7737 35.7523C72.3091 35.9356 71.7723 36.0002 71.2675 36.0026C67.2536 36.023 63.2385 36.0134 59.2246 36.017C58.8794 36.017 58.65 35.9751 58.6524 35.5188C58.6677 32.4303 58.6606 29.3406 58.6606 26.2521C58.6654 26.2509 58.6701 26.2509 58.6748 26.2509ZM70.1857 26.2677C70.1868 26.2677 70.188 26.2677 70.1904 26.2677C70.1904 24.4953 70.1821 22.723 70.1975 20.9518C70.201 20.5889 70.0864 20.4799 69.7269 20.4823C67.4794 20.4955 65.2307 20.4907 62.9831 20.4775C62.6698 20.4751 62.561 20.5745 62.5622 20.8943C62.5693 24.4714 62.5681 28.0485 62.5634 31.6244C62.5634 31.9537 62.6793 32.0759 63.021 32.0735C65.2047 32.0603 67.3884 32.0687 69.5721 32.0711C70.175 32.0723 70.1845 32.0663 70.1857 31.4388C70.1868 29.7143 70.1857 27.991 70.1857 26.2677Z" fill="#BE3136"/>
  <path d="M129.184 27.1531C129.184 29.9506 129.179 32.748 129.191 35.5455C129.192 35.8784 129.108 36.0222 128.764 36.0174C127.784 36.0042 126.804 36.0042 125.825 36.0174C125.449 36.0222 125.316 35.8629 125.319 35.4892C125.335 34.0905 125.317 32.6918 125.343 31.293C125.35 30.9062 125.238 30.7805 124.856 30.7829C122.639 30.7972 120.422 30.8008 118.205 30.7829C117.789 30.7793 117.68 30.9517 117.683 31.3277C117.695 32.7097 117.682 34.0929 117.703 35.4749C117.709 35.8401 117.626 36.0234 117.23 36.0174C116.25 36.003 115.27 36.009 114.291 36.0138C113.969 36.015 113.793 35.9335 113.793 35.5431C113.807 30.111 113.806 24.6777 113.815 19.2456C113.817 18.5079 113.886 17.7882 114.434 17.2038C114.969 16.6325 115.663 16.5032 116.372 16.4996C119.777 16.4817 123.183 16.4876 126.588 16.4996C127.504 16.5032 128.39 16.6948 128.845 17.6038C129.06 18.0325 129.158 18.5654 129.163 19.0528C129.192 21.7521 129.177 24.4526 129.177 27.1531C129.179 27.1531 129.182 27.1531 129.184 27.1531ZM121.485 20.4372C121.485 20.4336 121.485 20.43 121.485 20.4276C120.378 20.4276 119.272 20.4312 118.164 20.4252C117.89 20.424 117.697 20.4623 117.699 20.8132C117.709 22.697 117.708 24.5819 117.705 26.4657C117.705 26.7471 117.807 26.8764 118.101 26.8764C120.38 26.8716 122.658 26.8728 124.935 26.8812C125.234 26.8824 125.318 26.7603 125.317 26.4729C125.309 24.6214 125.306 22.77 125.32 20.9186C125.323 20.5617 125.21 20.4276 124.853 20.4324C123.731 20.4456 122.608 20.4372 121.485 20.4372Z" fill="#BE3136"/>
  <path d="M143.237 28.5021C143.237 28.1033 143.237 27.7045 143.237 27.3045C143.238 23.8891 143.245 20.4737 143.234 17.0582C143.233 16.6619 143.344 16.5038 143.752 16.511C144.716 16.5289 145.679 16.517 146.643 16.5026C146.987 16.4978 147.118 16.6116 147.118 16.9852C147.106 23.1646 147.106 29.3452 147.114 35.5245C147.114 35.8814 146.999 36.0227 146.642 36.0179C145.614 36.0048 144.585 36.0335 143.558 35.994C143.334 35.9856 143.033 35.812 142.912 35.6215C141.212 32.9426 139.536 30.2469 137.856 27.556C137.221 26.5393 136.588 25.5226 135.957 24.5046C135.899 24.41 135.86 24.3035 135.813 24.2017C135.748 24.234 135.683 24.2675 135.618 24.2999C135.607 24.4951 135.587 24.6903 135.587 24.8855C135.587 28.3656 135.589 31.8456 135.594 35.3269C135.596 36.0012 135.592 36.0131 134.935 36.0131C134.02 36.0131 133.103 36.0072 132.188 36.0143C131.855 36.0167 131.707 35.9197 131.707 35.5365C131.72 29.3895 131.722 23.2412 131.709 17.0942C131.708 16.6487 131.817 16.4906 132.267 16.5026C133.23 16.5289 134.196 16.4882 135.158 16.5241C135.371 16.5325 135.661 16.6882 135.773 16.8678C138.114 20.597 140.435 24.3394 142.762 28.0769C142.867 28.2458 142.994 28.4015 143.111 28.5632C143.152 28.5416 143.194 28.5224 143.237 28.5021Z" fill="#BE3136"/>
  <path d="M91.9888 25.3389C91.9888 27.9244 91.99 30.5099 91.9876 33.0954C91.9876 33.372 91.99 33.6499 91.9557 33.9229C91.802 35.136 91.2641 35.7169 90.0782 35.9336C89.7483 35.9935 89.4078 36.0103 89.0721 36.0115C85.829 36.0162 82.5848 36.0139 79.3418 36.0079C79.0533 36.0079 78.7636 35.9755 78.4787 35.9348C77.4927 35.7935 76.8483 35.1732 76.6662 34.1852C76.6225 33.9469 76.6071 33.7002 76.6071 33.4571C76.6036 27.9615 76.6071 22.4647 76.5977 16.9691C76.5965 16.6254 76.7017 16.5033 77.0328 16.5069C78.0282 16.5165 79.0237 16.5177 80.0192 16.5021C80.3952 16.4961 80.4756 16.6781 80.4732 17.0135C80.4602 18.314 80.4638 19.6145 80.4638 20.9163C80.4626 24.4287 80.4638 27.9411 80.4626 31.4536C80.4626 32.0811 80.4673 32.0871 81.0691 32.0871C83.2528 32.0871 85.4377 32.0775 87.6214 32.0931C88.0352 32.0967 88.1392 31.935 88.1381 31.547C88.131 26.7663 88.1357 21.9857 88.1357 17.2051C88.1357 16.526 88.1321 16.5225 88.7907 16.5177C89.7058 16.5117 90.6209 16.5165 91.5372 16.5057C91.8812 16.5021 92.0101 16.629 92.0077 16.9967C91.9935 19.7774 92.0006 22.5581 92.0006 25.3377C91.9959 25.3389 91.9924 25.3389 91.9888 25.3389Z" fill="#BE3136"/>
  <path d="M149.646 26.2269C149.646 23.1707 149.653 20.1134 149.638 17.0572C149.635 16.6189 149.79 16.4956 150.204 16.5063C151.134 16.5303 152.067 16.5291 152.999 16.5039C153.404 16.4932 153.523 16.6345 153.52 17.0404C153.504 19.2847 153.52 21.5289 153.504 23.7731C153.5 24.1779 153.623 24.3084 154.024 24.306C156.256 24.2916 158.489 24.2952 160.722 24.3096C161.094 24.312 161.183 24.1611 161.18 23.815C161.167 21.5708 161.184 19.3266 161.158 17.0824C161.152 16.6129 161.309 16.4956 161.74 16.5063C162.655 16.5303 163.571 16.5303 164.486 16.5027C164.9 16.4896 164.998 16.6417 164.997 17.0392C164.987 23.1875 164.991 29.3345 165 35.4828C165.001 35.8768 164.892 36.0348 164.48 36.0241C163.533 35.9989 162.585 36.0121 161.637 36.0157C161.317 36.0169 161.144 35.945 161.148 35.5462C161.176 33.2541 161.17 30.9608 161.185 28.6675C161.187 28.2903 161.011 28.2064 160.678 28.2076C158.446 28.2172 156.212 28.2172 153.979 28.2064C153.623 28.2052 153.502 28.3286 153.505 28.6914C153.518 30.9357 153.498 33.1799 153.525 35.4241C153.531 35.9103 153.378 36.0396 152.922 36.0253C151.992 35.9953 151.059 36.0109 150.127 36.0193C149.795 36.0229 149.632 35.9247 149.633 35.545C149.645 32.4398 149.639 29.3345 149.639 26.2293C149.641 26.2269 149.643 26.2269 149.646 26.2269Z" fill="#BE3136"/>
  <path d="M57.3534 16.5065C57.2139 16.5521 57.0472 16.5628 56.9396 16.6503C52.9872 19.8154 49.0431 22.9913 45.0907 26.1552C44.7844 26.4007 44.691 26.6295 44.8069 27.0271C46.1193 31.5598 47.4139 36.0973 48.7156 40.6337C48.8019 40.9355 48.9083 41.2313 49.0348 41.6205C48.8492 41.563 48.77 41.5558 48.712 41.5175C45.6948 39.5415 42.6788 37.562 39.6627 35.5824C38.3835 34.7429 37.1113 33.8938 35.8191 33.0771C35.676 32.9873 35.3663 32.9933 35.2303 33.0915C32.2415 35.2543 29.2668 37.4386 26.2874 39.6158C24.0623 41.242 21.8349 42.8623 19.6098 44.4874C18.7645 45.1042 17.9238 45.7269 17.0809 46.346C17.0513 46.3161 17.0217 46.2873 16.9922 46.2574C17.0903 46.1568 17.1814 46.0466 17.2878 45.9556C21.5428 42.3438 25.8038 38.7403 30.0554 35.1237C34.2573 31.5478 38.4473 27.9588 42.6468 24.3793C45.7161 21.7626 48.7889 19.1495 51.8699 16.5473C52.0414 16.4024 52.2979 16.2934 52.5167 16.2886C54.0253 16.2575 55.5351 16.2575 57.0437 16.2515C57.0851 16.2515 57.1264 16.285 57.169 16.303C57.2293 16.37 57.2908 16.4383 57.3534 16.5065Z" fill="white"/>
  <path d="M107.322 16.5569C106.977 17.6131 106.655 18.5951 106.334 19.5771C106.289 19.716 106.232 19.8526 106.205 19.9951C106.141 20.328 105.943 20.4322 105.621 20.431C103.42 20.4202 101.221 20.4262 99.0211 20.4166C98.4028 20.4142 98.3874 20.4094 98.3862 21.0178C98.378 24.5613 98.3744 28.1061 98.3591 31.6497C98.3567 32.0568 98.579 32.0808 98.8852 32.0796C101.503 32.0748 104.119 32.0772 106.737 32.0784C107.35 32.0784 107.346 32.0796 107.341 32.7011C107.335 33.6604 107.327 34.6196 107.342 35.5776C107.347 35.901 107.222 36.0172 106.92 36.0172C103.613 36.0124 100.305 36.0423 96.9982 35.9944C95.2709 35.9692 94.5225 35.1453 94.5166 33.3909C94.5024 28.6438 94.5083 23.8955 94.5142 19.1484C94.5154 18.1796 94.7046 17.267 95.6906 16.8299C96.1044 16.6455 96.5844 16.5305 97.0349 16.527C100.31 16.5018 103.586 16.5138 106.862 16.5162C106.989 16.515 107.113 16.5365 107.322 16.5569Z" fill="#BE3136"/>
  <path d="M9.66797 45.242C10.693 44.3606 11.7157 43.4768 12.7431 42.599C16.0299 39.7907 19.3191 36.9848 22.607 34.1778C25.772 31.4749 28.9394 28.7744 32.1021 26.0691C34.5411 23.9818 36.9743 21.8873 39.4098 19.7963C40.6938 18.6934 41.9742 17.5832 43.2665 16.4899C43.4036 16.3737 43.6129 16.2911 43.7891 16.2887C45.2657 16.2683 46.7436 16.2707 48.2203 16.2695C48.2629 16.2695 48.3066 16.3019 48.4816 16.3713C35.5319 26.0631 22.6484 35.7058 9.76492 45.3474C9.73418 45.3114 9.70107 45.2767 9.66797 45.242Z" fill="#BE3136"/>
  <path d="M58.9086 44.9625C58.9086 43.8739 58.9275 42.7841 58.8991 41.6955C58.8873 41.2489 59.0528 41.1459 59.4619 41.1518C60.7459 41.171 62.031 41.1734 63.315 41.1435C63.7607 41.1327 63.7986 41.3399 63.8128 41.7039C63.8269 42.0919 63.6768 42.1698 63.3327 42.1614C62.3857 42.1398 61.4375 42.1614 60.4917 42.1386C60.0992 42.1291 59.9325 42.2596 59.9573 42.6715C59.9833 43.0931 59.9774 43.517 59.9597 43.9386C59.9455 44.2978 60.0909 44.4308 60.4432 44.4224C61.3098 44.4032 62.1776 44.4296 63.0431 44.3936C63.4794 44.3757 63.5444 44.5769 63.5562 44.9457C63.5692 45.3265 63.4167 45.4139 63.0726 45.4068C62.1895 45.3864 61.3063 45.4104 60.4231 45.3912C60.0684 45.384 59.9336 45.5038 59.9514 45.8702C59.975 46.3732 59.9632 46.8774 59.9478 47.3815C59.9372 47.7204 60.0814 47.8426 60.4077 47.8378C61.4352 47.8246 62.4638 47.8438 63.49 47.8174C63.8955 47.8067 64.0173 47.9564 64.0244 48.3527C64.0303 48.7779 63.827 48.821 63.4841 48.8186C62.1197 48.8054 60.7542 48.8078 59.3898 48.821C59.0658 48.8234 58.8731 48.7707 58.879 48.3755C58.8956 47.2378 58.8849 46.1001 58.8849 44.9625C58.8956 44.9625 58.9015 44.9625 58.9086 44.9625Z" fill="white"/>
  <path d="M74.6033 44.2874C74.6033 43.2204 74.6033 42.2168 74.6033 41.2132C74.6033 40.654 74.6718 40.6001 75.211 40.63C75.4876 40.6456 75.5633 40.7726 75.5633 41.0312C75.5609 43.4874 75.5657 45.9424 75.5716 48.3986C75.5716 48.6345 75.5408 48.8153 75.2476 48.8285C74.8693 48.8453 74.511 48.8572 74.6021 48.1651C73.7449 48.9183 72.8428 49.1674 71.9041 48.771C71.443 48.5758 70.9819 48.2046 70.6993 47.789C69.9663 46.7124 70.1318 45.1939 70.9724 44.3185C71.8923 43.3605 73.0308 43.3377 74.6033 44.2874ZM71.2763 46.2011C71.2716 47.2621 71.9596 48.0273 72.9209 48.0297C73.9022 48.0321 74.6174 47.2837 74.6245 46.2454C74.6305 45.2502 73.9175 44.4957 72.9611 44.4874C71.9679 44.4802 71.281 45.1784 71.2763 46.2011Z" fill="white"/>
  <path d="M97.1653 48.9991C95.5101 48.944 94.303 48.1453 93.6669 46.6184C93.0249 45.0771 93.22 43.5598 94.3089 42.276C95.3943 40.9971 96.8355 40.736 98.3914 41.1671C98.8383 41.2905 99.2415 41.5982 99.6434 41.8545C99.9166 42.0281 99.8681 42.209 99.6198 42.4257C99.2663 42.7347 99.0168 42.791 98.6089 42.4485C97.779 41.7503 96.651 41.7611 95.7028 42.4341C94.718 43.1323 94.355 44.161 94.4543 45.3298C94.5607 46.5824 95.1779 47.5189 96.4146 47.8938C97.3285 48.1704 98.1928 48.053 98.9057 47.3237C99.1918 47.0303 99.8787 47.2183 99.9615 47.6255C99.9851 47.7405 99.8669 47.9237 99.7628 48.0207C99.0322 48.7033 98.1597 49.0135 97.1653 48.9991Z" fill="white"/>
  <path d="M143.235 46.5968C142.722 46.5968 142.209 46.5956 141.695 46.5968C141.201 46.598 141.13 46.7226 141.361 47.1776C141.842 48.1297 143.1 48.3656 143.942 47.6614C144.13 47.5034 144.269 47.2663 144.586 47.5058C145.063 47.8662 145.065 47.9776 144.583 48.3536C143.869 48.9117 143.06 49.0219 142.212 48.8842C140.709 48.6399 139.817 46.9537 140.329 45.3777C140.897 43.6293 143.128 42.9431 144.424 44.1251C145.052 44.6975 145.253 45.4496 145.268 46.2747C145.274 46.5669 145.115 46.6244 144.87 46.6208C144.325 46.6124 143.78 46.6184 143.235 46.6184C143.235 46.6136 143.235 46.6052 143.235 46.5968ZM142.736 45.8256C143.073 45.8256 143.409 45.8256 143.746 45.8256C144.222 45.8256 144.314 45.6891 144.142 45.2436C143.895 44.6029 143.403 44.3095 142.65 44.3514C142.055 44.3849 141.393 44.9119 141.251 45.4532C141.184 45.713 141.286 45.8232 141.534 45.8256C141.934 45.828 142.335 45.8256 142.736 45.8256Z" fill="white"/>
  <path d="M108.794 48.9331C107.265 48.9176 106.104 47.7308 106.129 46.2087C106.154 44.713 107.353 43.5406 108.833 43.5633C110.358 43.5861 111.516 44.7752 111.499 46.2985C111.482 47.7895 110.292 48.9475 108.794 48.9331ZM108.804 44.4902C107.832 44.4902 107.144 45.2399 107.147 46.2937C107.152 47.3105 107.876 48.0266 108.892 48.0194C109.785 48.0134 110.488 47.2206 110.479 46.2315C110.47 45.2255 109.763 44.4902 108.804 44.4902Z" fill="white"/>
  <path d="M119.018 44.1647C119.447 43.9671 119.814 43.7228 120.216 43.6258C121.5 43.318 122.458 44.094 122.477 45.4209C122.492 46.4113 122.474 47.4028 122.495 48.3932C122.503 48.7501 122.361 48.8447 122.039 48.8291C121.744 48.8148 121.498 48.8184 121.51 48.4004C121.533 47.5729 121.533 46.7442 121.523 45.9155C121.513 44.991 121.133 44.5155 120.419 44.4976C119.606 44.4772 119.047 44.9982 119.008 45.8891C118.973 46.6999 118.977 47.5142 119.012 48.325C119.031 48.7717 118.833 48.8315 118.467 48.8327C118.086 48.8327 117.975 48.6962 117.982 48.3106C118.006 46.9957 117.987 45.6796 117.998 44.3646C118 44.1048 117.839 43.7132 118.305 43.6892C118.648 43.6725 119.131 43.518 119.018 44.1647Z" fill="white"/>
  <path d="M85.7927 48.2258C85.2276 48.7887 84.6412 48.9767 83.9649 48.9312C83.1409 48.8749 82.4693 48.3695 82.4043 47.548C82.3097 46.3684 82.3333 45.1793 82.3203 43.9937C82.3168 43.6188 82.61 43.6847 82.8465 43.6763C83.1326 43.6655 83.2993 43.7518 83.2946 44.0871C83.2827 45.014 83.2721 45.9409 83.3005 46.8666C83.3182 47.4618 83.6634 47.8797 84.134 47.9851C84.737 48.1205 85.36 47.8702 85.6 47.3241C85.7325 47.0223 85.7939 46.6702 85.8093 46.3373C85.84 45.6726 85.8223 45.0044 85.8129 44.3386C85.8069 43.9829 85.7585 43.6667 86.2964 43.6631C86.8107 43.6584 86.8107 43.9242 86.8072 44.3086C86.7918 45.6092 86.8036 46.9097 86.8001 48.2103C86.7989 48.4653 86.9278 48.8186 86.4808 48.821C86.1451 48.821 85.6816 48.9623 85.7927 48.2258Z" fill="white"/>
  <path d="M130.191 44.3438C130.421 44.1558 130.526 44.0696 130.633 43.9845C131.281 43.4672 132.004 43.4684 132.729 43.7366C133.372 43.9749 133.664 44.5402 133.696 45.1857C133.749 46.2874 133.733 47.394 133.738 48.4981C133.739 48.8729 133.461 48.8191 133.22 48.8227C132.928 48.8262 132.727 48.7724 132.735 48.3963C132.754 47.4874 132.76 46.5772 132.739 45.6671C132.726 45.0647 132.394 44.6276 131.942 44.5186C131.333 44.3725 130.777 44.5617 130.498 45.1138C130.33 45.4479 130.244 45.8491 130.221 46.2276C130.181 46.9066 130.205 47.5916 130.225 48.273C130.234 48.6023 130.232 48.837 129.791 48.831C129.389 48.8262 129.232 48.7364 129.244 48.2814C129.277 46.982 129.242 45.6827 129.253 44.3821C129.255 44.127 129.07 43.7342 129.538 43.6911C129.892 43.6588 130.351 43.557 130.191 44.3438Z" fill="white"/>
  <path d="M154.2 48.9304C152.88 48.9136 152.043 48.3471 151.628 47.2598C151.247 46.2646 151.555 44.9305 152.33 44.2012C153.174 43.4084 154.967 43.3641 155.814 44.1354C155.897 44.2108 155.927 44.5042 155.866 44.5533C155.651 44.7281 155.547 45.1617 155.094 44.885C154.781 44.6934 154.403 44.5461 154.042 44.515C153.376 44.4575 152.835 44.9269 152.602 45.6443C152.357 46.3999 152.582 47.2262 153.153 47.6753C153.707 48.11 154.423 48.14 154.99 47.7508C155.359 47.4981 155.767 47.6059 155.918 48.0322C155.953 48.128 155.85 48.3304 155.752 48.4094C155.269 48.7962 154.71 48.9675 154.2 48.9304Z" fill="white"/>
  <path d="M162.54 46.2461C162.54 45.8557 162.51 45.4629 162.549 45.0773C162.594 44.6342 162.426 44.5012 162.007 44.5144C161.82 44.5204 161.534 44.4342 161.459 44.2965C161.281 43.9755 161.489 43.7085 161.865 43.6869C162.524 43.6486 162.524 43.6486 162.524 42.9336C162.524 42.281 162.616 42.172 163.188 42.275C163.318 42.2989 163.503 42.4965 163.514 42.6283C163.6 43.6222 163.588 43.633 164.511 43.6773C164.808 43.6917 164.9 43.8246 164.907 44.0989C164.915 44.3719 164.837 44.5443 164.534 44.5324C164.517 44.5312 164.502 44.5324 164.485 44.5336C163.516 44.5815 163.515 44.5815 163.515 45.5659C163.515 46.1024 163.503 46.6389 163.521 47.1742C163.543 47.8268 163.843 48.0604 164.485 48.0029C164.636 47.9897 164.918 48.0699 164.93 48.1406C164.974 48.416 165.028 48.822 164.647 48.8543C164.151 48.8963 163.62 48.8735 163.148 48.7286C162.915 48.6568 162.728 48.2711 162.621 47.9873C162.522 47.7263 162.549 47.4125 162.537 47.1215C162.525 46.8293 162.535 46.5371 162.535 46.2449C162.537 46.2461 162.538 46.2461 162.54 46.2461Z" fill="white"/>
</svg>